<?xml version="1.0" encoding="iso-8859-1"?>
<!-- Generator: Adobe Illustrator 19.0.0, SVG Export Plug-In . SVG Version: 6.00 Build 0)  -->
<svg version="1.1" id="Layer_1" xmlns="http://www.w3.org/2000/svg" xmlns:xlink="http://www.w3.org/1999/xlink" x="0px" y="0px"
	 viewBox="0 0 511.994 511.994" style="enable-background:new 0 0 511.994 511.994;" xml:space="preserve">
<circle style="fill:#344B5E;" cx="255.997" cy="255.997" r="255.997"/>
<path style="fill:#2B3B4E;" d="M293.736,509.226c111.175-16.427,199.061-104.314,215.488-215.488L322.37,106.883l-1.943,54.947
	l-54.947-54.947l-3.423,53.465l-53.465-53.465l-1.303,102.774l-100.407-1.063l49.652,49.654l-49.652,7.236l47.892,47.892
	l-47.892,8.997L293.736,509.226z"/>
<rect x="106.883" y="189.633" style="fill:#51B5E7;" width="298.239" height="18.963"/>
<rect x="255.426" y="189.633" style="fill:#2C9DD8;" width="149.696" height="18.963"/>
<rect x="106.883" y="246.516" style="fill:#51B5E7;" width="298.239" height="18.963"/>
<rect x="255.426" y="246.516" style="fill:#2C9DD8;" width="149.696" height="18.963"/>
<rect x="106.883" y="303.41" style="fill:#51B5E7;" width="298.239" height="18.963"/>
<g>
	<rect x="255.426" y="303.41" style="fill:#2C9DD8;" width="149.696" height="18.963"/>
	<rect x="303.41" y="106.883" style="fill:#2C9DD8;" width="18.963" height="298.239"/>
</g>
<rect x="246.516" y="106.883" style="fill:#51B5E7;" width="18.963" height="298.239"/>
<rect x="255.426" y="106.883" style="fill:#2C9DD8;" width="10.052" height="298.239"/>
<rect x="189.633" y="106.883" style="fill:#51B5E7;" width="18.963" height="298.239"/>
<rect x="156.44" y="156.44" style="fill:#BBE1E9;" width="199.113" height="199.113"/>
<rect x="255.426" y="156.44" style="fill:#6AC1B7;" width="100.128" height="199.113"/>
<rect x="181.876" y="181.876" style="fill:#51B5E7;" width="148.253" height="148.253"/>
<rect x="255.426" y="181.876" style="fill:#2C9DD8;" width="74.703" height="148.253"/>
<g>
</g>
<g>
</g>
<g>
</g>
<g>
</g>
<g>
</g>
<g>
</g>
<g>
</g>
<g>
</g>
<g>
</g>
<g>
</g>
<g>
</g>
<g>
</g>
<g>
</g>
<g>
</g>
<g>
</g>
</svg>
