<?xml version="1.0" encoding="iso-8859-1"?>
<!-- Generator: Adobe Illustrator 19.0.0, SVG Export Plug-In . SVG Version: 6.00 Build 0)  -->
<svg version="1.1" id="Capa_1" xmlns="http://www.w3.org/2000/svg" xmlns:xlink="http://www.w3.org/1999/xlink" x="0px" y="0px"
	 viewBox="0 0 512.009 512.009" style="enable-background:new 0 0 512.009 512.009;" xml:space="preserve">
<g transform="translate(0 -1)">
	<path style="fill:#35495E;" d="M238.349,80.457h238.345c9.366-0.003,18.348,3.717,24.971,10.339
		c6.622,6.623,10.342,15.605,10.339,24.971v291.31c0.003,9.366-3.717,18.349-10.339,24.971
		c-6.623,6.622-15.605,10.342-24.971,10.339H35.315c-9.366,0.003-18.348-3.717-24.971-10.339
		c-6.623-6.623-10.342-15.605-10.339-24.971v-291.31c-0.003-9.366,3.717-18.348,10.339-24.971s15.605-10.342,24.971-10.339H238.349z
		"/>
	<rect x="185.384" y="424.733" style="fill:#95A5A5;" width="141.241" height="70.621"/>
	<g>
		<path style="fill:#BDC3C7;" d="M123.591,477.698h264.828c4.875,0,8.828,3.952,8.828,8.828v17.655c0,4.875-3.952,8.828-8.828,8.828
			H123.591c-4.875,0-8.828-3.952-8.828-8.828v-17.655C114.763,481.651,118.715,477.698,123.591,477.698z"/>
		<path style="fill:#BDC3C7;" d="M512.004,371.767v35.31c0.003,9.366-3.717,18.348-10.339,24.971
			c-6.623,6.622-15.605,10.342-24.971,10.339H35.315c-9.366,0.003-18.348-3.717-24.971-10.339
			c-6.623-6.623-10.342-15.605-10.339-24.971l0-35.31H512.004z"/>
	</g>
	<path style="fill:#F3D55B;" d="M292.551,301.147c3.155-23.166,12.247-45.122,26.395-63.735
		c11.741-15.537,27.807-26.659,38.841-42.726c35.429-51.441,26.906-121.23-19.861-162.634s-117.075-41.403-163.842,0
		s-55.29,111.193-19.861,162.634c11.034,16.066,27.101,27.189,38.841,42.726c14.147,18.613,23.24,40.569,26.394,63.735H292.551z"/>
	<g>
		<path style="fill:#F0785A;" d="M238.349,309.974c-2.341,0.001-4.587-0.929-6.243-2.585c-1.656-1.656-2.585-3.901-2.585-6.243
			v-58.849l-24.715-32.957c-1.146-1.528-1.766-3.387-1.767-5.297v-44.138c-0.001-2.341,0.929-4.587,2.585-6.243
			c1.656-1.656,3.901-2.585,6.243-2.585h26.483c4.875,0,8.828,3.952,8.828,8.828s-3.952,8.828-8.828,8.828h-17.655v32.366
			l24.715,32.957c1.146,1.528,1.767,3.387,1.767,5.297v61.793c0.001,2.341-0.929,4.587-2.585,6.243
			C242.936,309.045,240.691,309.975,238.349,309.974z"/>
		<path style="fill:#F0785A;" d="M273.659,309.974c-2.341,0.001-4.587-0.929-6.243-2.585c-1.656-1.656-2.585-3.901-2.585-6.243
			v-61.793c0.001-1.91,0.621-3.769,1.767-5.297l24.715-32.957v-32.366h-17.655c-4.875,0-8.828-3.952-8.828-8.828
			s3.952-8.828,8.828-8.828h26.483c2.341-0.001,4.587,0.929,6.243,2.585c1.656,1.656,2.585,3.901,2.585,6.243v44.138
			c-0.001,1.91-0.621,3.769-1.767,5.297l-24.715,32.957v58.849c0.001,2.341-0.929,4.587-2.585,6.243
			C278.247,309.045,276.001,309.975,273.659,309.974z"/>
	</g>
	<path style="fill:#95A5A5;" d="M260.418,407.078h-8.828c-8.336,0-16.185-3.925-21.186-10.593l-18.538-24.717h88.276l-18.538,24.717
		C276.603,403.153,268.754,407.078,260.418,407.078z"/>
	<g>
		<path style="fill:#E6E7E8;" d="M70.625,265.836h-35.31c-4.875,0-8.828-3.952-8.828-8.828s3.952-8.828,8.828-8.828h35.31
			c4.875,0,8.828,3.952,8.828,8.828S75.5,265.836,70.625,265.836z"/>
		<path style="fill:#E6E7E8;" d="M114.763,301.147h-35.31c-4.875,0-8.828-3.952-8.828-8.828s3.952-8.828,8.828-8.828h35.31
			c4.875,0,8.828,3.952,8.828,8.828S119.638,301.147,114.763,301.147z"/>
		<path style="fill:#E6E7E8;" d="M158.901,265.836h-52.966c-4.875,0-8.828-3.952-8.828-8.828s3.952-8.828,8.828-8.828h52.966
			c4.875,0,8.828,3.952,8.828,8.828S163.776,265.836,158.901,265.836z"/>
		<path style="fill:#E6E7E8;" d="M70.625,336.457h-35.31c-4.875,0-8.828-3.952-8.828-8.828s3.952-8.828,8.828-8.828h35.31
			c4.875,0,8.828,3.952,8.828,8.828S75.5,336.457,70.625,336.457z"/>
		<path style="fill:#E6E7E8;" d="M158.901,336.457h-52.966c-4.875,0-8.828-3.952-8.828-8.828s3.952-8.828,8.828-8.828h52.966
			c4.875,0,8.828,3.952,8.828,8.828S163.776,336.457,158.901,336.457z"/>
		<path style="fill:#E6E7E8;" d="M44.142,301.147h-8.828c-4.875,0-8.828-3.952-8.828-8.828s3.952-8.828,8.828-8.828h8.828
			c4.875,0,8.828,3.952,8.828,8.828S49.018,301.147,44.142,301.147z"/>
		<path style="fill:#E6E7E8;" d="M158.901,301.147h-8.828c-4.875,0-8.828-3.952-8.828-8.828s3.952-8.828,8.828-8.828h8.828
			c4.875,0,8.828,3.952,8.828,8.828S163.776,301.147,158.901,301.147z"/>
		<path style="fill:#E6E7E8;" d="M388.418,265.836h-35.31c-4.875,0-8.828-3.952-8.828-8.828s3.952-8.828,8.828-8.828h35.31
			c4.875,0,8.828,3.952,8.828,8.828S393.293,265.836,388.418,265.836z"/>
		<path style="fill:#E6E7E8;" d="M432.556,301.147h-35.31c-4.875,0-8.828-3.952-8.828-8.828s3.952-8.828,8.828-8.828h35.31
			c4.875,0,8.828,3.952,8.828,8.828S437.431,301.147,432.556,301.147z"/>
		<path style="fill:#E6E7E8;" d="M476.694,265.836h-52.966c-4.875,0-8.828-3.952-8.828-8.828s3.952-8.828,8.828-8.828h52.966
			c4.875,0,8.828,3.952,8.828,8.828S481.569,265.836,476.694,265.836z"/>
		<path style="fill:#E6E7E8;" d="M388.418,336.457h-35.31c-4.875,0-8.828-3.952-8.828-8.828s3.952-8.828,8.828-8.828h35.31
			c4.875,0,8.828,3.952,8.828,8.828S393.293,336.457,388.418,336.457z"/>
		<path style="fill:#E6E7E8;" d="M476.694,336.457h-52.966c-4.875,0-8.828-3.952-8.828-8.828s3.952-8.828,8.828-8.828h52.966
			c4.875,0,8.828,3.952,8.828,8.828S481.569,336.457,476.694,336.457z"/>
		<path style="fill:#E6E7E8;" d="M361.935,301.147h-8.828c-4.875,0-8.828-3.952-8.828-8.828s3.952-8.828,8.828-8.828h8.828
			c4.875,0,8.828,3.952,8.828,8.828S366.811,301.147,361.935,301.147z"/>
		<path style="fill:#E6E7E8;" d="M476.694,301.147h-8.828c-4.875,0-8.828-3.952-8.828-8.828s3.952-8.828,8.828-8.828h8.828
			c4.875,0,8.828,3.952,8.828,8.828S481.569,301.147,476.694,301.147z"/>
	</g>
	<path style="fill:#ECF0F1;" d="M211.866,301.147h88.276c4.875,0,8.828,3.952,8.828,8.828v61.793H203.039v-61.793
		C203.039,305.099,206.991,301.147,211.866,301.147z"/>
	<path style="fill:#BDC3C7;" d="M273.659,345.284h-35.31c-4.875,0-8.828-3.952-8.828-8.828s3.952-8.828,8.828-8.828h35.31
		c4.875,0,8.828,3.952,8.828,8.828S278.535,345.284,273.659,345.284z"/>
</g>
<g>
</g>
<g>
</g>
<g>
</g>
<g>
</g>
<g>
</g>
<g>
</g>
<g>
</g>
<g>
</g>
<g>
</g>
<g>
</g>
<g>
</g>
<g>
</g>
<g>
</g>
<g>
</g>
<g>
</g>
</svg>
