<?xml version="1.0" encoding="UTF-8" standalone="no"?>
<!-- Created with Inkscape (http://www.inkscape.org/) -->

<svg
   xmlns:dc="http://purl.org/dc/elements/1.1/"
   xmlns:cc="http://creativecommons.org/ns#"
   xmlns:rdf="http://www.w3.org/1999/02/22-rdf-syntax-ns#"
   xmlns:svg="http://www.w3.org/2000/svg"
   xmlns="http://www.w3.org/2000/svg"
   xmlns:sodipodi="http://sodipodi.sourceforge.net/DTD/sodipodi-0.dtd"
   xmlns:inkscape="http://www.inkscape.org/namespaces/inkscape"
   width="1200"
   height="1000"
   viewBox="0 0 1200 1000"
   id="svg18049"
   version="1.1"
   inkscape:version="0.91 r13725"
   sodipodi:docname="background1.svg">
  <defs
     id="defs18051" />
  <sodipodi:namedview
     id="base"
     pagecolor="#ffffff"
     bordercolor="#666666"
     borderopacity="1.0"
     inkscape:pageopacity="0.0"
     inkscape:pageshadow="2"
     inkscape:zoom="0.7"
     inkscape:cx="390.40393"
     inkscape:cy="471.24892"
     inkscape:document-units="px"
     inkscape:current-layer="g18811"
     showgrid="false"
     inkscape:window-width="1920"
     inkscape:window-height="1001"
     inkscape:window-x="-9"
     inkscape:window-y="-9"
     inkscape:window-maximized="1"
     units="px" />
  <metadata
     id="metadata18054">
    <rdf:RDF>
      <cc:Work
         rdf:about="">
        <dc:format>image/svg+xml</dc:format>
        <dc:type
           rdf:resource="http://purl.org/dc/dcmitype/StillImage" />
        <dc:title />
      </cc:Work>
    </rdf:RDF>
  </metadata>
  <g
     inkscape:label="Calque 1"
     inkscape:groupmode="layer"
     id="layer1"
     transform="translate(0,-52.362161)">
    <g
       id="g18811"
       transform="translate(211.42855,25.714238)">
      <path
         id="path9148-7"
         style="fill:none;stroke:#cedde4;stroke-width:1.27182269;stroke-linecap:square;stroke-linejoin:bevel;stroke-miterlimit:10;stroke-opacity:1"
         d="m 615.17806,664.92963 -57.86448,34.31317 2.75546,-46.79068 m 152.06972,-145.62301 -22.6155,33.27338 24.69508,11.80165 35.45694,2.75545 30.6219,-21.99162 -4.15917,43.25538 0,10.86584 -49.02624,-1.14377 -9.41012,33.37735 -29.89405,53.18541 47.31058,-1.76765 13.20537,-43.46334 -56.30479,-15.59689 -17.41653,-14.97302 12.73746,70.60194 -17.62449,14.60909 13.20537,42.11161 -27.81446,-34.41714 -29.58211,-82.40359 37.90045,31.66169 -48.29838,26.35875 -21.21177,-22.25157 45.90685,-58.43636 60.51596,-17.05261 -17.72848,-42.26758 c 0,0 -45.07502,19.91204 -50.63791,19.91204 -5.56289,0 32.44154,-39.87606 32.44154,-39.87606 m 111.72575,70.96586 -49.7021,-38.6283 -14.29715,-30.46594 29.68608,12.52951 m -126.64678,145.57101 -55.10902,-12.47751 18.5603,-35.30097 -67.22261,-30.10201 128.41442,-2.80744 34.31317,14.40113 m 52.97745,-12.99741 -35.09301,25.73488 -28.54232,27.13859 25.05902,29.21818 -47.31059,-16.68867 28.49033,30.56991 40.34397,4.21116 m -88.33041,-178.53245 18.09239,76.94468 -90.15004,-15.28496 44.24319,73.72132 -111.62178,27.03462 133.87335,54.32918 -78.3484,-98.52038 238.32054,-49.59813 -207.23073,-25.05901 211.3899,-18.19637 -38.47234,-13.30935 -126.64678,145.57101 54.53714,16.68868 39.6681,32.02562 24.17519,-42.99544 -15.80485,-51.62572 58.38437,-32.23358 -5.56289,85.10705 59.37217,-33.16939 -25.63089,34.20919 -55.99285,-45.90686 41.12381,-2.4955 m -210.45409,-346.40702 -10.08599,21.93963 -11.48972,-6.96662 z m -39.6681,18.76826 -9.72207,-3.11938 -8.0064,7.33054 z m -6.96662,-11.12579 -24.33115,-5.19896 -8.68227,13.88124 z m 10.76186,488.54672 27.65849,-21.78366 23.86325,15.90883 z m -35.56092,-26.25477 -1.76765,9.87803 8.37034,-3.32734 z m -8.94222,33.84526 17.05261,-22.19958 13.10139,29.99802 z m -8.0064,-36.02883 -7.95442,41.27978 34.93704,17.83245 z M 108.95485,670.02462 77.397132,675.6395 65.335534,703.45396 Z m 0,72.83749 -14.401134,-5.09498 -13.933225,10.18997 z m -4.21116,-21.36774 -31.505729,0.93581 c 0,0 -10.189971,25.05901 -7.43452,25.05901 2.807441,0 38.940249,-25.99482 38.940249,-25.99482 z m 45.43895,-25.00702 -38.00443,0 11.12578,41.69569 z m 102.00371,-142.81556 -6.44672,7.43452 9.25416,12.94542 -12.52951,-1.81964 -1.40372,12.94542 -11.33374,-8.57829 2.28754,14.40113 -5.45891,3.43132 m 4.31514,-57.55254 0.93581,14.50511 -20.84786,31.03782 15.59691,12.00961 3.37933,-29.6341 13.62129,7.17457 -42.05965,12.52951 -7.74646,-26.20279 25.31896,4.47111 -18.45632,-23.65529 -5.19897,18.6123 m 56.77272,-4.05519 -20.37995,-2.28755 -1.87162,13.41333 15.80485,-3.69126 -19.02821,-13.93323 -32.96146,11.12578 17.20858,24.1232 19.91205,-45.54293 z m -28.28237,-33.37736 -18.50834,4.62708 6.91463,8.78625 z m 2.80744,-30.15399 -16.22079,-2.33954 6.91462,12.52951 z m 28.75027,13.93322 -30.6219,-3.74325 14.81705,20.43193 z m 488.49473,353.0617 -24.33116,-4.5231 5.5629,6.96661 z m 228.33853,-365.48722 -16.37674,-3.84724 2.13157,7.69447 z M 813.3626,813.724 l -7.85044,-12.0616 -12.21757,-5.45891 z m -21.41974,-25.42294 -18.09239,0 10.81384,4.83504 z m -14.97301,20.84785 -8.68228,-0.31194 4.21117,6.5507 z m -29.89405,1.66367 12.5295,15.38894 -17.15658,0.72785 4.62708,14.19317 -20.06801,-15.75286 m 3.74326,-30.56991 16.32475,16.01281 -20.06801,14.5571 -22.5635,-6.91462 12.94542,-15.5969 m 13.36134,-8.05839 -13.36134,8.05839 10.81385,15.5969 18.87224,-7.64248 -42.26758,-10.76186 -0.36393,18.40434 25.47492,-7.43452 -2.91142,14.34914 15.44093,1.55969 7.22656,-24.5911 z m 57.81249,-51.36577 -20.22398,-1.40372 -17.78046,10.81384 24.43514,-1.03979 -7.69447,17.78046 -15.70087,-3.48331 11.5417,20.89984 17.26056,-12.68547 m 17.67648,-5.56289 -23.34335,-16.37674 5.66687,21.93963 11.64568,6.55069 -23.70728,-38.83626 -16.74066,24.0712 36.96464,-22.66748 z m -298.73251,-65.299 -58.90427,9.72206 -23.18738,31.97364 -8.31834,-16.89664 -3.27535,21.1078 -10.65788,11.59369 m -10.65788,4.57509 -11.85364,56.82468 23.91524,6.29075 -6.96661,16.22077 -33.37735,6.4987 14.34914,21.31576 m -23.1354,-48.24639 8.78626,26.93063 49.13021,16.22077 -53.28939,30.25798 -11.59369,-20.06801 -42.6835,25.05901 35.24898,12.94543 -3.22336,-21.78367 36.60072,6.49871 -56.56474,24.1232 m -160.85597,-123.78735 -2.33953,25.47492 45.90686,32.44154 15.5449,-18.30035 9.93002,40.55192 5.5629,34.78108 -38.47234,-3.69127 -35.71689,10.65788 -69.3022,-41.27978 31.29777,10.44992 37.58851,-26.67069 8.31835,26.46273 36.18479,-30.6219 m 332.4218,-536.01326 -11.12578,24.17518 24.53911,-3.63927 m 30.41395,-17.41653 -44.13921,-3.79525 14.76505,21.73167 m -14.45312,-21.0558 -35.71688,-2.07959 -10.18998,27.6065 36.86066,-1.61167 -39.61611,-41.95565 -38.94024,27.34655 94.36121,16.89664 -73.04546,42.89146 17.83245,-86.04287 -53.54933,53.60133 53.08143,51.88567 31.97363,21.00381 m -142.55561,-1.03979 -14.81705,-44.50314 -32.44154,5.5629 9.93002,26.04681 -41.01983,-5.14698 4.5231,36.44475 -10.08599,47.31057 4.62707,34.93705 4.57509,48.40236 32.85746,-43.30738 -42.05962,-40.03203 41.27978,-31.40174 -31.19379,-15.90883 73.8253,-18.40434 17.62449,-48.66231 -32.44154,4.15917 -12.0616,49.59813 m 19.13219,33.53332 -29.58211,-51.52174 -36.49673,31.29777 m 216.64086,132.88553 -26.77467,84.84711 17.0526,33.74128 -30.93384,-6.29075 13.88124,-27.6065 m -181.18392,266.86286 -17.36454,81.36383 -46.63472,-34.05325 m 78.60835,-181.54785 56.77269,20.17198 32.70149,45.23099 -64.88308,10.18997 -39.20019,58.64433 -25.00702,1.40372 -31.29777,-34.78108 m -78.60835,34.78108 -4.88702,38.94024 85.31501,-34.05322 -43.56733,-51.00184 m -86.92667,50.27401 50.06599,-4.15918 m 34.78108,-47.98645 -82.09166,52.14563 M 481.92859,669.81665 450.63083,688.117 m 3.84724,-37.53651 54.58913,-65.71492 28.75027,40.65591 -55.52494,44.1912 -27.45054,-19.13219 m -5.56288,-29.89403 59.47614,-35.14502 m -39.66809,-8.00641 -19.80805,43.15143 m -201.71986,165.84699 7.12262,25.21496 m -5.71887,-25.52691 -41.01984,8.9942 m 2.07959,-33.74127 -32.33754,48.40234 m 70.23801,-22.97943 -37.90047,-25.73486 m -99.71615,85.05505 8.83824,-53.28939 29.68609,7.90243 -39.46014,44.50314 m 131.22187,20.84784 99.71614,11.59369 -95.50498,25.26697 56.30479,33.37736 -12.73747,-108.24245 -64.93506,87.60256 52.66551,22.04361 7.64248,79.96011 -37.12061,-75.07309 -9.51411,41.01984 -75.8009,-6.96662 m 128.93435,-147.65055 50.06598,48.66229 m -99.24823,-11.12579 49.18225,-38.94025 m -66.33884,88.07043 17.15659,-49.13018 m -76.47676,70.44598 58.85231,-21.3158 m -110.78999,-24.07122 51.93768,44.97106 m -54.74507,-89.05822 2.80739,44.08716 m 90.87794,0 -93.68533,-44.50312 m 92.74948,44.03528 38.00448,-24.59112 m -64.41517,-57.96845 26.41069,82.55957 m 6.49871,-51.93768 -32.9094,-30.62189 m 79.75212,1.87158 -46.84272,29.2182 m 32.44155,27.34656 -33.37732,-27.81445 m 40.34395,-53.34137 -40.34395,53.34137 m 74.39716,-75.33301 -34.31316,22.25157 67.48256,15.96082 -61.86768,8.68227 36.49673,17.41653 -82.40359,12.16558 1.03979,-77.88049 -60.15202,38.94024 28.49033,7.64248 -68.15843,38.26438 131.42983,18.0924 6.96661,77.88049 -84.8471,-5.56289 41.01983,-47.31058 -92.48958,1.40372 -32.701491,-82.03966 40.343971,-17.41654 -38.94025,89.00628 38.94025,61.91967 m 198.23652,-223.03559 -8.37033,20.17199 -25.47493,-7.01861 -0.72786,30.46594 -38.1604,-9.25416 2.70347,31.71369 64.46716,-0.46791 28.28237,91.34581 32.64949,-54.95306 -84.11925,5.82284 59.00825,-54.48515 -35.82086,12.32155 -29.68609,-21.83565 52.82148,-18.30036 37.58852,76.73672 23.18738,-50.11802 -34.78108,-21.31576 -51.93765,-10.65787 42.6835,-11.12579 11.12578,21.31576 31.08981,-13.88124 -39.72009,-45.95885 36.23678,-8.47431 -88.12245,96.59677 82.29961,-13.46532 23.65529,-71.8497 -90.8779,26.67069 76.00886,16.48072 75.59295,-39.1482 -47.62252,-25.89085 -13.72526,57.03265 -16.53271,-46.42676 59.78809,6.60269 4.73106,-38.05642 m -3.32734,23.75926 -28.75027,-41.74768 -33.84526,50.06603 -3.63928,-21.41974 35.6649,9.41013 -23.13539,-29.1142 56.98065,9.15017 -31.50572,-20.84784 -8.78626,-29.68609 -2.80744,-36.1848 14.86904,-21.78366 c 0,0 -37.1206,-12.5295 -37.58851,-11.12578 -0.46791,1.40372 19.96402,-50.06603 19.96402,-50.06603 m 67.37859,-67.74251 -92.95749,-28.69829 -6.96662,-46.84267 46.84268,23.65529 45.90685,-20.37994 -73.72132,85.26302 48.2464,17.62449 -40.81188,11.17777 -37.1206,-21.83565 -19.91204,108.03449 -59.37218,-7.38253 122.90353,-55.21301 -86.25082,-11.12578 58.38437,38.00443 -6.96661,70.60194 -29.6341,-33.01343 -19.70408,25.37095 -1.40372,-99.35221 m 113.85733,-135.1211 -14.34914,27.34656 -39.87606,23.18738 37.06861,136.78476 -75.59294,21.78366 131.42983,-129.87013 -110.58198,19.96402 c 0,0 30.15399,131.68978 30.15399,130.28606 0,-1.35173 71.90168,11.59369 71.90168,11.59369 l -39.40815,33.84526 -1.81964,-66.75471 -51.98964,33.94924 74.70912,44.39916 -51.41776,20.95183 39.30417,-88.17444 m 42.68349,-204.26731 -19.96402,45.23099 m -1.87162,0.46789 39.40815,-6.96661 m -18.40433,-36.96463 18.40433,36.86066 m -46.37479,300.81207 -42.6315,39.40814 m -13.9332,44.03528 -0.67587,-37.22461 m 0,1.40369 23.29138,29.2182 m -0.36395,-0.36389 -22.25156,7.3305 m 504.71548,-245.85902 -42.42355,18.0924 19.02821,-37.58852 -32.33756,19.80806 10.50191,29.84205 m 78.14044,-65.66292 -23.39534,-2.07959 11.59369,-5.19896 -0.72786,-21.88764 16.37674,-13.5693 -32.33756,-2.44351 -27.45053,-37.64051 m 24.43513,61.50375 18.97622,-7.85043 -16.63669,-6.29075 33.01343,-7.27855 -3.84723,42.73549 -15.54491,16.94862 -17.36454,18.56031 11.5417,8.31834 m -34.41714,-92.9055 13.82924,4.83504 13.46532,-0.93581 -2.80744,25.00702 -21.21178,1.76764 6.39473,21.67969 -22.92743,12.47751 -19.6001,20.06801 13.30935,17.78046 6.4987,15.96082 -9.30614,-3.89923 -23.91524,-7.27855 2.96341,19.18418 -9.35814,11.5417 -11.85364,-0.41591 -3.74325,-28.90625 -22.35555,-1.35173 8.37033,-14.24516 -14.29715,-2.80744 11.85364,41.07182 8.16237,2.75545 -24.17518,10.29395 2.33954,12.78946 m 132.62558,-64.93508 -4.26315,16.06481 -49.54613,-5.82284 51.93766,-55.68092 -38.62831,-21.47172 20.068,-20.69188 -27.0866,59.99605 53.49734,1.19576 27.39855,-7.64247 -43.35937,-30.62191 -14.60909,24.59111 13.20537,32.23358 26.20278,1.61168 -3.69126,26.87864 24.0712,-14.14118 -20.84784,-14.14118 6.96661,-22.66749 m -54.2252,-86.19883 66.02685,152.32966 -33.11741,-35.82087 -80.53196,15.02501 -24.85105,41.43575 -29.58211,-15.18098 32.44154,-24.85105 -20.01601,58.8003 -10.08599,-10.29395 76.00886,-42.63152 15.44092,-86.45878 m -186.95476,54.43316 -18.56031,-19.91203 12.99741,-20.43194 m 34.41715,6.0308 0.31194,16.22077 -29.16619,18.0924 -5.5629,-40.34397 -55.68091,22.71948 42.6835,-2.28754 -13.46532,-25.99483 m 119.62818,21.78366 -28.75027,18.56031 3.27534,-23.18738 -32.96143,10.65787 -34.72909,-22.25157 5.97881,-23.18738 19.96403,9.72207 18.09239,-29.6341 36.60072,0 39.40815,-16.22077 -14.81705,-16.74067 39.46014,-11.95762 -44.55513,-10.29395 29.68609,-9.72206 m 37.48454,11.59369 -37.48454,-11.59369 -24.5911,31.97363 -5.09499,-22.25157 -28.49032,-11.12578 m 11.33374,83.96328 -38.94025,-17.62449 -9.61808,49.13021 -42.78748,-41.74768 43.09942,-28.75028 -30.56991,-10.65788 m 116.56078,14.66109 -47.93445,44.24318 -5.09499,27.81447 46.58273,-11.74966 -21.1078,16.37673 21.47172,1.71566 -24.69508,-26.25477 -39.6681,-19.23617 -15.85684,33.58531 -16.68868,-35.82086 17.00062,-34.6771 41.74768,-17.15658 -74.08524,6.96661 26.77467,-15.75286 -29.1662,-22.51152 45.90686,-28.02242 -36.18479,-1.5077 61.91967,33.01343 -14.29716,24.33115 -49.02623,-58.02044 -1.81964,-14.03721 -11.38573,30.36196 m 123.73536,179.41627 -25.68289,-36.39276 -18.97622,-2.28754 -100.65196,-19.49612 131.68978,-70.49796 -76.06085,-14.34914 42.47554,-19.02821 11.33374,83.96328 31.29777,-3.95122 -46.58273,41.01984 -32.96143,-76.06086 85.31501,5.14698 m 10.34594,-17.05261 -25.16299,0.31194 -30.56991,-30.56991 -28.75028,-34.31317 -39.40815,-16.22077 -20.89984,17.1046" />
    </g>
  </g>
</svg>
