<?xml version="1.0" encoding="UTF-8" standalone="no"?>
<!-- Created with Inkscape (http://www.inkscape.org/) -->

<svg
   xmlns:dc="http://purl.org/dc/elements/1.1/"
   xmlns:cc="http://creativecommons.org/ns#"
   xmlns:rdf="http://www.w3.org/1999/02/22-rdf-syntax-ns#"
   xmlns:svg="http://www.w3.org/2000/svg"
   xmlns="http://www.w3.org/2000/svg"
   xmlns:sodipodi="http://sodipodi.sourceforge.net/DTD/sodipodi-0.dtd"
   xmlns:inkscape="http://www.inkscape.org/namespaces/inkscape"
   width="2200"
   height="1910"
   viewBox="0 0 2200 1910"
   id="svg22206"
   version="1.1"
   inkscape:version="0.91 r13725"
   sodipodi:docname="creation_background.svg">
  <defs
     id="defs22208" />
  <sodipodi:namedview
     id="base"
     pagecolor="#ffffff"
     bordercolor="#666666"
     borderopacity="1.0"
     inkscape:pageopacity="0.0"
     inkscape:pageshadow="2"
     inkscape:zoom="0.24748737"
     inkscape:cx="-148.39482"
     inkscape:cy="1016.6539"
     inkscape:document-units="px"
     inkscape:current-layer="layer1"
     showgrid="false"
     units="px"
     inkscape:window-width="1920"
     inkscape:window-height="1001"
     inkscape:window-x="-9"
     inkscape:window-y="-9"
     inkscape:window-maximized="1" />
  <metadata
     id="metadata22211">
    <rdf:RDF>
      <cc:Work
         rdf:about="">
        <dc:format>image/svg+xml</dc:format>
        <dc:type
           rdf:resource="http://purl.org/dc/dcmitype/StillImage" />
        <dc:title></dc:title>
      </cc:Work>
    </rdf:RDF>
  </metadata>
  <g
     inkscape:label="Calque 1"
     inkscape:groupmode="layer"
     id="layer1"
     transform="translate(0,857.638)">
    <path
       id="path24426"
       style="color:#000000;clip-rule:nonzero;display:inline;overflow:visible;visibility:visible;opacity:0.98000004;isolation:auto;mix-blend-mode:normal;color-interpolation:sRGB;color-interpolation-filters:linearRGB;solid-color:#000000;solid-opacity:1;fill:none;fill-opacity:0.39215686;fill-rule:nonzero;stroke:#087492;stroke-width:6;stroke-linecap:butt;stroke-linejoin:miter;stroke-miterlimit:10;stroke-dasharray:none;stroke-dashoffset:0;stroke-opacity:1;color-rendering:auto;image-rendering:auto;shape-rendering:auto;text-rendering:auto;enable-background:accumulate"
       d="m 271.42903,287.3625 a 23.571428,23.571428 0 0 1 -23.5715,23.57143 23.571428,23.571428 0 0 1 -23.5714,-23.57143 23.571428,23.571428 0 0 1 23.5714,-23.57143 23.571428,23.571428 0 0 1 23.5715,23.57143 z M 1497.246,985.69453 c -5.9974,6.2639 -15.993,6.3972 -22.1236,0.2665 -6.2639,-6.1306 -6.3972,-15.9929 -0.2665,-22.2568 5.9973,-6.2639 15.9929,-6.2639 22.2568,-0.2665 6.2639,6.1306 6.2639,16.1262 0.1333,22.2568 z M 1367.947,95.161508 1457.3741,244.82877 m 432.6088,-135.67345 -86.0953,174.72284 M 1232.1403,0.13685809 1092.7352,-10.924912 m -123.94526,76.233 -3.4651,57.174682 M 2036.8514,745.14099 c 0,45.18004 -36.6505,81.96374 -81.9638,81.96374 -45.3133,0 -81.9638,-36.65043 -81.9638,-81.96374 0,-45.31331 36.6505,-81.96378 81.9638,-81.96378 45.3133,0 81.9638,36.78375 81.9638,81.96378 z m -329.8543,-45.44658 c 0,25.18887 -20.391,45.57986 -45.4466,45.57986 -25.1888,0 -45.5798,-20.39099 -45.5798,-45.57986 0,-25.18887 20.391,-45.44659 45.5798,-45.44659 25.0556,-0.13327 45.4466,20.25772 45.4466,45.44659 z m -62.1059,-343.18169 c 0,19.3248 -15.5931,34.91791 -34.7846,34.91791 -19.3248,0 -34.9179,-15.59311 -34.9179,-34.91791 0,-19.19151 15.5931,-34.9179 34.9179,-34.9179 19.1915,0 34.7846,15.59311 34.7846,34.9179 z m -74.2338,-250.02289 212.4394,175.25589 m -250.9558,-156.7307 -20.1244,119.81375 m -288.1393,-653.31127 -95.6911,-24.52252 m 210.4404,-203.90991 -19.1915,52.90997 m -186.9841,-152.06616 71.4352,69.70251 m -60.5067,-82.63018 160.8623,44.38049 m -195.5136,0 63.3053,139.80481 m -95.2912,-133.14112 20.7907,227.49952 m -57.4412,-234.16321 -23.5896,100.08905 m -192.84817,-118.61426 174.05651,-25.85528 m 134.74046,301.20027 c 0,15.45983 -12.5278,27.85436 -27.8543,27.85436 -15.4599,0 -27.8544,-12.5278 -27.8544,-27.85436 0,-15.45984 12.3945,-27.85436 27.8544,-27.85436 15.4598,0 27.8543,12.39452 27.8543,27.85436 z m 99.1562,-204.97609 c 0,10.26213 -8.263,18.65842 -18.6584,18.65842 -10.2622,0 -18.6584,-8.39629 -18.6584,-18.65842 0,-10.26213 8.3962,-18.65842 18.6584,-18.65842 10.2621,0.13327 18.6584,8.39629 18.6584,18.65842 z m -37.3168,104.22061 c 0,9.46249 -7.5967,17.05913 -17.0592,17.05913 -9.4625,0 -17.0591,-7.59664 -17.0591,-17.05913 0,-9.46248 7.5966,-17.05913 17.0591,-17.05913 9.4625,0 17.0592,7.59665 17.0592,17.05913 z m -46.113,-226.96637 c 0,42.7811 -34.6514,77.56573 -77.5657,77.56573 -42.9144,0 -77.56576,-34.78463 -77.56576,-77.56573 0,-42.78114 34.65136,-77.56574 77.56576,-77.56574 42.7811,0 77.5657,34.7846 77.5657,77.56574 z M 168.34373,446.47297 c 0,31.05295 -25.0556,56.10854 -56.1086,56.10854 -31.052896,0 -56.108496,-25.05559 -56.108496,-56.10854 0,-31.05294 25.1889,-56.10854 56.108496,-56.10854 31.053,0 56.1086,25.0556 56.1086,56.10854 z m 155.1314,-257.35298 -60.6398,80.63104 m 188.4501,-177.521502 83.0299,-39.44927 m -158.5966,152.199422 5.4643,193.78108 M 333.87063,46.383098 262.83533,-116.8781 m 197.3794,17.059115 -63.9717,137.006113 m 321.5912,125.011492 195.7802,-12.66108 m -311.0625,-86.761702 55.3088,70.102402 m 1203.20167,309.1967 -62.1059,-129.00972 m 33.8519,157.93022 -117.948,-39.84902 m -75.4334,-56.64163 139.0052,14.92674 m -168.992,536.2964 3.1986,87.96107 M 168.34373,753.40398 l 129.6761,97.95675 m 166.7263,-121.54623 -30.3866,68.76959 m 122.2126,-138.60544 -33.1853,37.18363 m -33.3186,168.19225 139.5383,-53.8429 m 89.6937,19.0583 c -21.0573,21.4572 -55.3089,21.857 -76.7661,0.7996 -21.4571,-20.9241 -21.7237,-55.30887 -0.7996,-76.76605 20.9241,-21.45719 55.3089,-21.72374 76.7661,-0.79965 21.3239,20.92409 21.7237,55.3089 0.7996,76.7661 z m -548.9574,-78.76522 c -5.331,5.46426 -14.2604,5.59753 -19.8579,0.13328 -5.4642,-5.33098 -5.5975,-14.26037 -0.1333,-19.72462 5.331,-5.46425 14.2604,-5.59753 19.7247,-0.26655 5.5975,5.46425 5.5975,14.26037 0.2665,19.85789 z m 148.8675,67.83672 c 39.316,-40.11563 103.5543,-40.782 143.6699,-1.466 40.1156,39.3159 40.782,103.5542 1.466,143.6698 -39.316,40.11557 -103.5542,40.78197 -143.6698,1.466 -40.1156,-39.1827 -40.782,-103.5542 -1.4661,-143.6698 z M 1709.6626,440.20907 c -8.1297,8.26302 -21.4572,8.39629 -29.7202,0.26655 -8.263,-8.12974 -8.3963,-21.45718 -0.2665,-29.7202 8.1297,-8.26301 21.4572,-8.39629 29.7202,-0.26655 8.263,8.26302 8.3963,21.45719 0.2665,29.7202 z m -77.5657,470.19226 c -18.6584,19.0582 -49.1783,19.458 -68.2365,0.6663 -19.0583,-18.6584 -19.3248,-49.1782 -0.6664,-68.2365 18.6584,-19.0582 49.3115,-19.3248 68.2365,-0.6664 19.0583,18.5252 19.3248,49.1783 0.6664,68.2366 z m 172.0573,-602.53378 c -6.5305,6.66373 -17.1924,6.797 -23.9894,0.26655 -6.6637,-6.53044 -6.797,-17.1924 -0.2666,-23.9894 6.5305,-6.66372 17.3257,-6.797 23.9895,-0.26655 6.797,6.53045 6.797,17.32568 0.2665,23.9894 z m -10.1289,89.29388 c -3.8649,3.86496 -10.1288,3.99823 -13.9938,0.13327 -3.8649,-3.73168 -3.8649,-10.12885 -0.1333,-13.99381 3.865,-3.86496 10.1289,-3.99824 13.8606,-0.13328 3.9982,3.86496 4.1315,10.12886 0.2665,13.99382 z m -1205.60057,248.0238 79.9647,29.85333 m -71.7017,-87.69449 52.1104,-37.7167 m -114.2162,15.06005 -12.2614,-88.36102 m -76.3662,44.11389 c -3.4651,3.59841 -9.1959,3.59841 -12.7943,0.13327 -3.4651,-3.46513 -3.5984,-9.19594 -0.1333,-12.79435 3.4652,-3.59841 9.196,-3.59841 12.7944,-0.13327 3.5984,3.59841 3.7316,9.19594 0.1332,12.79435 z m -321.991,105.2868 c 1.3327,33.05206 -24.389196,61.0397 -57.574596,62.37244 -33.052,1.33275 -61.0397002,-24.5225 -62.3724002,-57.57456 -1.3327,-33.05206 24.3892002,-61.03969 57.5746002,-62.37243 33.1853,-1.19947 61.039596,24.52249 62.372396,57.57455 z m 582.6758,-23.7228 -13.0609,41.98144 m 6.5305,33.1853 c -7.9965,8.12974 -20.9241,8.26301 -29.0538,0.26655 -8.1298,-7.99647 -8.263,-20.92409 -0.2666,-29.05383 7.9965,-8.12974 20.9241,-8.26302 29.0538,-0.26655 7.9965,7.86319 8.2631,20.92409 0.2666,29.05383 z m 87.428,-97.69017 c -32.5189,33.18534 -85.6954,33.71844 -118.7475,1.19947 -33.0521,-32.38569 -33.7184,-85.56219 -1.1995,-118.74752 32.3857,-33.18534 85.5622,-33.71844 118.7476,-1.33275 33.1853,32.51897 33.7184,85.69547 1.1994,118.8808 z m 1184.67657,-150.86668 -61.173,31.58606 m -135.1403,82.7634 61.8394,-36.25058 m -56.6417,98.08993 125.0115,74.76694 M 474.07523,436.74397 l -60.24,-4.39813 m 1520.66137,237.09528 -42.6478,-53.70969 m 167.2594,-38.51617 -76.4996,88.49411 M 714.76893,350.51538 l -70.7688,72.23477 m 1362.46467,14.79343 51.0441,50.91084 m -47.1791,67.30353 36.1173,-7.46335 m -128.7431,-64.10498 129.6761,25.85529 m -124.8782,-176.8552 -13.0608,41.84813 m -15.5932,238.69455 c -7.3301,7.46337 -19.1915,7.59665 -26.6549,0.26655 -7.4634,-7.33009 -7.5966,-19.19152 -0.2665,-26.65488 7.3301,-7.46337 19.1915,-7.59665 26.6549,-0.26655 7.4633,7.19682 7.5966,19.19152 0.2665,26.65488 z M 644.40003,451.40413 c -7.8632,7.99646 -20.6576,8.12974 -28.654,0.26655 -7.9965,-7.8632 -8.1298,-20.65754 -0.2666,-28.65401 7.8632,-7.99647 20.6576,-8.12974 28.654,-0.26655 7.9965,7.72992 7.9965,20.65754 0.2666,28.65401 z m -101.2886,12.79434 c -15.5931,15.85966 -41.0485,16.12621 -57.0415,0.5331 -15.8596,-15.59311 -16.1262,-41.04853 -0.5331,-56.90819 15.5932,-15.85965 41.0486,-16.1262 57.0415,-0.53309 15.7264,15.45983 16.1262,40.91525 0.5331,56.90818 z m 1362.19807,49.57809 c -16.7926,17.19241 -44.2471,17.45896 -61.4395,0.66638 -17.0591,-16.79258 -17.3257,-44.24712 -0.6664,-61.43952 16.7926,-17.05913 44.2471,-17.45895 61.3063,-0.66637 17.3256,16.79258 17.5922,44.24711 0.7996,61.43951 z m 94.7581,88.76078 c -17.4589,17.85878 -45.9796,18.12533 -63.8384,0.66637 -17.8588,-17.45895 -18.1253,-45.97968 -0.6664,-63.83845 17.459,-17.85878 45.9797,-18.12533 63.8385,-0.66638 17.7255,17.45896 18.1253,45.97969 0.6663,63.83846 z m 182.7193,70.63545 c -15.3266,15.59311 -40.2489,15.85966 -55.7088,0.5331 -15.5931,-15.19328 -15.8596,-40.24888 -0.5331,-55.70871 15.3266,-15.59311 40.1157,-15.85966 55.842,-0.5331 15.3266,15.19328 15.5931,40.1156 0.3999,55.70871 z m -8.3963,-89.29387 c -29.3204,29.85347 -77.2992,30.38657 -107.1527,1.0662 -29.8534,-29.32038 -30.3865,-77.29918 -1.0662,-107.15265 29.3204,-29.85348 77.2992,-30.38658 107.1527,-1.0662 29.8535,29.32038 30.3865,77.29918 1.0662,107.15265 z M 2004.3324,439.67598 c -7.1968,7.46336 -19.1915,7.59664 -26.6549,0.26654 -7.4633,-7.33009 -7.5966,-19.19151 -0.2665,-26.65488 7.1968,-7.46337 19.1915,-7.59665 26.5216,-0.26655 7.5966,7.19682 7.7299,19.19152 0.3998,26.65489 z m -88.3609,-31.45277 c -7.9965,8.12974 -20.9241,8.26301 -29.0539,0.26655 -8.1297,-7.99647 -8.263,-20.92409 -0.2665,-29.05383 7.9965,-8.12974 20.9241,-8.26302 29.1871,-0.26655 7.9965,7.86319 8.1297,20.92409 0.1333,29.05383 z m 87.5613,-97.69017 c -32.519,33.18534 -85.6955,33.71844 -118.7476,1.19947 -33.1853,-32.51896 -33.7184,-85.69547 -1.1994,-118.74753 32.5189,-33.18533 85.5622,-33.71843 118.7475,-1.33274 33.0521,32.65224 33.5852,85.69546 1.1995,118.8808 z m -439.6724,600.53469 -68.6363,53.3098 M 248.57493,679.17021 l 29.7202,58.64075 m 138.6054,-74.50046 -32.2523,126.07761 m 72.901,-120.4801 c 14.9267,-15.19328 39.1827,-15.45983 54.376,-0.5331 15.1933,14.79347 15.4598,39.18269 0.5331,54.37598 -14.7935,15.06001 -39.1827,15.45983 -54.376,0.53309 -15.06,-14.92673 -15.3266,-39.18268 -0.5331,-54.37597 z m -140.4712,128.07674 c -13.9939,14.26038 -36.9171,14.52688 -51.3107,0.5331 -14.2604,-13.99382 -14.5269,-37.0503 -0.5331,-51.31066 13.9938,-14.39364 37.0503,-14.52692 51.3107,-0.5331 14.3936,14.12709 14.6601,37.05029 0.5331,51.31066 z M 1621.968,1040.2106 c -5.9973,6.2639 -15.9929,6.3971 -22.1235,0.2665 -6.2639,-6.1306 -6.3972,-15.9929 -0.2666,-22.2568 5.9974,-6.2639 15.993,-6.2639 22.2569,-0.2666 6.2639,6.1307 6.2639,16.1262 0.1332,22.2569 z M 506.72753,628.12602 l -68.1033,17.19245 m -110.6178,-1.06626 3.9983,-44.5137 m 78.8985,36.91711 -46.3795,-45.57995 m 64.638,-74.50028 -38.9161,17.99204 m 198.1791,110.61773 c -19.0582,19.45807 -50.511,19.85789 -69.9691,0.79965 -19.5913,-19.19152 -19.8579,-50.51101 -0.7996,-69.96908 19.1915,-19.45807 50.511,-19.85789 69.9691,-0.79965 19.5913,19.19152 19.8579,50.51101 0.7996,69.96908 z m -260.1517,16.92586 c -4.9311,4.93115 -12.9276,5.06442 -17.8588,0.13327 -4.9311,-4.93115 -5.0644,-12.79435 -0.1332,-17.85877 4.7978,-4.93116 12.9276,-5.06443 17.8587,-0.13328 4.9312,4.79788 5.0645,12.92762 0.1333,17.85878 z m 105.9532,-2.66549 c -6.2639,6.39717 -16.6593,6.53044 -23.0565,0.26655 -6.3972,-6.2639 -6.5304,-16.52603 -0.2665,-23.05648 6.2639,-6.39718 16.6593,-6.53045 23.0564,-0.26655 6.3972,6.2639 6.5305,16.6593 0.2666,23.05648 z m 86.4951,-438.07311 -19.0582,66.23741 M 74.785034,567.75264 90.777934,497.91689 M 123.16373,606.269 276.42933,563.22145 m 12.7943,17.05902 -44.5137,40.78195 m 24.9224,-82.36349 -62.3724,-5.33099 m 343.4481,-330.65394 71.9682,-2.26568 m 1064.86287,465.26105 19.4581,-31.45276 M 523.78663,299.20473 631.47243,222.70517 m -214.3053,-30.65313 21.4571,38.24978 m -231.4977,300.13405 c 0.3999,10.39541 -7.7299,19.19152 -18.1253,19.59134 -10.3954,0.39983 -19.1915,-7.72992 -19.5913,-18.12532 -0.3998,-10.39541 7.7299,-19.19152 18.1253,-19.59134 10.3954,-0.39983 19.1915,7.72991 19.5913,18.12532 z m 54.376,117.94788 c 0.7997,21.72373 -16.1262,40.1156 -37.8499,40.91525 -21.7238,0.79965 -40.1156,-16.12621 -40.9153,-37.84994 -0.9329,-21.72373 15.993,-40.11561 37.85,-40.91525 21.7237,-0.79965 40.1156,16.1262 40.9152,37.84994 z m 275.2117,-319.85866 c 0.933,23.9894 -17.7255,44.11384 -41.7149,45.04676 -23.9894,0.93292 -44.1138,-17.7255 -45.0467,-41.7149 -0.933,-23.9894 17.7255,-44.11384 41.5816,-45.04676 24.1227,-0.93292 44.2471,17.7255 45.18,41.7149 z m 186.3177,-145.66896 c 1.1995,28.78728 -21.1906,52.90995 -49.9779,54.10942 -28.7873,1.06619 -53.0432,-21.32391 -54.1094,-49.97792 -1.1995,-28.78728 21.3239,-53.04322 49.9779,-54.10942 28.654,-1.19947 53.0432,21.19064 54.1094,49.97792 z m -54.1094,126.47744 c 0.9329,24.92232 -18.3919,45.84641 -43.3142,46.91261 -24.9223,0.93292 -45.9797,-18.39188 -46.9126,-43.3142 -0.9329,-24.92232 18.5251,-45.84641 43.3142,-46.9126 25.0556,-0.93292 45.9797,18.39187 46.9126,43.31419 z M 550.70803,205.64606 c 0.3999,10.3954 -7.5966,19.19151 -18.1253,19.59134 -10.3954,0.39982 -19.0582,-7.72992 -19.5913,-18.12533 -0.3998,-10.3954 7.7299,-19.19152 18.1253,-19.59134 10.5287,-0.39982 19.1915,7.72992 19.5913,18.12533 z m -83.4298,42.78109 c 0.5331,11.32833 -8.3962,20.92409 -19.7246,21.32391 -11.3283,0.39982 -20.9241,-8.39629 -21.4572,-19.72462 -0.3998,-11.32832 8.3963,-20.92408 19.7247,-21.32391 11.4616,-0.53309 21.0573,8.26302 21.4571,19.72462 z m -10.9285,-130.74223 c 1.8659,46.37951 -34.2515,85.42892 -80.631,87.29476 -46.3795,1.73257 -85.4289,-34.25153 -87.1615,-80.63103 -1.8658,-46.379502 34.2516,-85.428922 80.4978,-87.294762 46.3795,-1.86584 85.4289,34.25153 87.2947,80.631032 z m -82.7634,464.06161 c -23.1897,23.72285 -61.1729,24.12267 -84.7625,0.93292 -23.7229,-23.18975 -23.9894,-61.17297 -0.9329,-84.89582 23.1897,-23.72285 61.1729,-24.12267 84.7625,-0.93292 23.7228,23.18975 24.1227,61.17297 0.9329,84.89582 z m 1393.91737,36.91702 c -23.1897,23.72285 -61.1729,24.12267 -84.7625,0.93292 -23.7229,-23.18975 -24.1227,-61.17297 -0.9329,-84.89582 23.1897,-23.58957 61.1729,-24.12267 84.7625,-0.93292 23.7229,23.18975 24.1227,61.17297 0.9329,84.89582 z M 405.43893,463.39883 c -15.1933,15.59311 -40.1156,15.85965 -55.7087,0.53309 -15.5931,-15.19328 -15.8597,-40.24888 -0.6664,-55.70871 15.3266,-15.59311 40.2489,-15.85966 55.7087,-0.66637 15.7264,15.32656 15.993,40.24888 0.6664,55.84199 z M 1225.4766,226.7034 1163.3707,97.693748 m 33.8517,157.930222 -117.9479,-39.84909 m -75.4333,-56.64164 139.0052,14.92675 m -174.05646,45.84644 3.1987,87.96114 m -48.77851,-102.48808 -68.6364,53.17653 m 198.44567,476.05633 29.587,58.64075 m -109.81816,15.59303 129.67596,97.9567 m 118.8809,-188.05016 -32.2524,126.07756 m 80.0979,-59.57359 -30.3866,68.63639 m 122.0794,-138.47227 -33.052,37.18366 m -33.3186,168.19221 139.5382,-53.8429 m 89.5605,19.0583 c -20.9241,21.4572 -55.3089,21.7238 -76.7661,0.7997 -21.4572,-20.9241 -21.7237,-55.3089 -0.7996,-76.7661 20.9241,-21.45717 55.3089,-21.85699 76.7661,-0.7996 21.4571,20.924 21.857,55.3089 0.7996,76.766 z M 1261.9938,724.35018 c 14.7934,-15.19329 39.1827,-15.45984 54.3759,-0.5331 15.1933,14.79346 15.4599,39.18269 0.5331,54.37597 -14.9267,15.19329 -39.1826,15.45984 -54.3759,0.5331 -15.1933,-14.92674 -15.4599,-39.18268 -0.5331,-54.37597 z m -140.4713,128.07675 c -13.9938,14.2603 -36.917,14.5269 -51.3106,0.5331 -14.3937,-13.9938 -14.6602,-37.0503 -0.5331,-51.31068 13.9938,-14.39363 37.0502,-14.52691 51.3106,-0.53309 14.2604,13.99377 14.5269,37.05027 0.5331,51.31067 z m -146.86846,-45.1801 c -5.3309,5.4643 -14.2603,5.5976 -19.7246,0.1333 -5.46421,-5.46423 -5.59751,-14.26034 -0.2665,-19.72459 5.4642,-5.46425 14.3936,-5.59753 19.8579,-0.26655 5.4642,5.46425 5.5975,14.26036 0.1332,19.85784 z m 148.86756,67.8367 c 39.316,-40.1156 103.5543,-40.7819 143.6699,-1.466 40.1156,39.316 40.782,103.5543 1.5993,143.66987 -39.316,40.1156 -103.5543,40.7819 -143.6699,1.5993 -40.1156,-39.31597 -40.782,-103.68757 -1.5993,-143.80317 z M 981.45104,334.52244 c -6.1306,6.2639 -16.1262,6.39718 -22.2568,0.26655 -6.2639,-6.13062 -6.3972,-15.99293 -0.2665,-22.25683 6.1306,-6.2639 15.9929,-6.39717 22.2568,-0.26655 6.2639,5.99735 6.3972,15.99293 0.2665,22.25683 z m 92.62576,-109.68487 c -8.1297,8.26302 -21.3239,8.39629 -29.7202,0.26655 -8.263,-8.12974 -8.3963,-21.45718 -0.2666,-29.7202 7.9965,-8.26301 21.324,-8.39629 29.587,-0.26655 8.3963,8.12975 8.5296,21.45719 0.3998,29.7202 z m -82.63016,-20.25771 c -18.6584,19.05824 -49.17821,19.32479 -68.23651,0.79965 -19.0582,-18.65842 -19.3248,-49.31155 -0.6664,-68.36979 18.6585,-19.05825 49.17831,-19.3248 68.36981,-0.66637 18.92496,18.65842 19.19146,49.17827 0.5331,68.23651 z M 1168.5684,92.496058 c -6.5305,6.66372 -17.3257,6.79699 -23.9894,0.26654 -6.6637,-6.53044 -6.797,-17.19239 -0.2666,-23.98939 6.5305,-6.66372 17.3257,-6.797 23.9894,-0.26655 6.797,6.53045 6.797,17.32567 0.2666,23.9894 z m -10.1289,89.293872 c -3.8649,3.86496 -10.1288,3.99823 -13.8605,0.13328 -3.9982,-3.73169 -3.9982,-10.12886 -0.1333,-13.99382 3.865,-3.86496 10.1289,-3.99823 13.8606,-0.13328 3.8649,3.86496 3.9982,10.12886 0.1332,13.99382 z m 234.2965,518.83744 80.0979,29.85351 m -71.8348,-87.82791 52.2435,-37.5835 m -114.2162,15.06009 -12.2612,-88.36102 m -15.5931,151.79962 -68.2365,17.19244 m -110.4846,-1.06628 3.9982,-44.51352 m 78.8985,36.91696 -46.5128,-45.5798 m 64.7714,-74.50043 -38.9161,17.99204 m 198.0458,110.61776 c -19.0582,19.45807 -50.511,19.85789 -69.9691,0.66637 -19.4581,-19.19152 -19.8579,-50.51101 -0.6664,-69.96908 19.0583,-19.59134 50.3778,-19.85789 69.9691,-0.79965 19.4581,19.19152 19.8579,50.64429 0.6664,70.10236 z m -260.0184,16.92585 c -4.9312,4.93116 -12.9277,5.06443 -17.8588,0.13328 -4.9312,-4.79788 -5.0644,-12.79435 -0.1333,-17.85878 4.9312,-4.93115 12.9276,-5.06443 17.8588,-0.13327 4.9311,4.79788 4.9311,12.79434 0.1333,17.85877 z m 105.9531,-2.66549 c -6.2639,6.39718 -16.526,6.53045 -22.9232,0.26655 -6.3971,-6.2639 -6.5304,-16.52603 -0.2665,-23.05648 6.3972,-6.39717 16.6593,-6.53044 23.0565,-0.26654 6.2639,6.26389 6.3971,16.6593 0.1332,23.05647 z m 11.7282,-139.00524 c -3.4651,3.59841 -9.1959,3.59841 -12.7944,0.13328 -3.4651,-3.46514 -3.5984,-9.19594 -0.1332,-12.79435 3.4651,-3.46513 9.1959,-3.59841 12.7943,-0.13327 3.5984,3.46513 3.5984,9.19593 0.1333,12.79434 z m -319.72547,-174.0564 -19.0582,66.37065 m -32.5189,154.99823 16.1261,-69.83581 m 32.3857,108.35202 153.26557,-43.18079 m 12.7945,17.19226 -44.5138,40.78211 m 24.9224,-82.36368 -62.3725,-5.46421 m -51.04396,-205.5092 71.96816,-2.26568 m 19.3248,69.43596 19.458,-31.45275 M 933.73873,479.65828 1041.4245,403.1588 m -214.30527,-30.65312 21.4572,38.24977 m 79.8314,270.41381 c 1.3328,33.18534 -24.5225,61.03969 -57.5745,62.37244 -33.0521,1.33274 -61.0397,-24.5225 -62.3725,-57.57456 -1.3327,-33.05206 24.5225,-61.03969 57.5746,-62.37244 33.1853,-1.19947 61.0397,24.5225 62.3724,57.57456 z m 83.16327,-95.29122 c 0.3998,10.3954 -7.73,19.19152 -18.12536,19.59134 -10.3954,0.39982 -19.1915,-7.72992 -19.5913,-18.12532 -0.3998,-10.39541 7.7299,-19.19152 18.1253,-19.59135 10.39536,-0.39982 19.19146,7.72992 19.59136,18.12533 z m 54.376,117.94788 c 0.9329,21.72373 -16.1262,40.1156 -37.85,40.91525 -21.7237,0.93292 -40.11556,-15.99293 -40.91526,-37.84994 -0.9329,-21.72374 15.99296,-40.11561 37.84996,-40.91526 21.7238,-0.93292 39.9823,15.99294 40.9153,37.84995 z M 946.66643,508.97868 c 0.9329,23.9894 -17.7255,44.11384 -41.5816,45.04677 -23.9894,0.93292 -44.2471,-17.72551 -45.18,-41.7149 -0.933,-23.9894 17.7255,-44.11384 41.5816,-45.04677 24.1227,-0.93292 44.2471,17.72551 45.18,41.7149 z M 1079.008,489.78716 c 0.9329,24.92233 -18.3919,45.84641 -43.3143,46.91261 -24.9223,1.06619 -45.84636,-18.39187 -46.91256,-43.3142 -0.9329,-24.92232 18.39186,-45.8464 43.31416,-46.9126 24.9224,-0.93292 45.8465,18.39187 46.9127,43.31419 z M 960.79354,386.09965 c 0.3998,10.39541 -7.7299,19.19152 -18.12531,19.59134 -10.3954,0.39983 -19.1915,-7.72991 -19.5914,-18.12532 -0.3998,-10.39541 7.73,-19.19152 17.9921,-19.59134 10.5287,-0.39983 19.32481,7.72991 19.72461,18.12532 z m -83.56311,42.7811 c 0.3999,11.32832 -8.3963,20.92408 -19.7246,21.32391 -11.3283,0.39982 -20.9241,-8.39629 -21.3239,-19.72462 -0.3998,-11.32833 8.3963,-20.92409 19.7246,-21.32391 11.3283,-0.5331 20.9241,8.26301 21.3239,19.72462 z m -10.9285,-130.74223 c 1.7326,46.37951 -34.2515,85.42892 -80.631,87.29476 -46.3795,1.86584 -85.4289,-34.25153 -87.2948,-80.63104 -1.8658,-46.37951 34.2516,-85.42892 80.6311,-87.29476 46.3795,-1.73257 85.2956,34.25153 87.2947,80.63104 z m 644.78187,359.30788 -13.061,41.8482 m 6.3972,33.31859 c -7.9965,8.12975 -20.9241,8.26302 -29.0538,0.26655 -8.1298,-7.99646 -8.2631,-20.92408 -0.2666,-29.05382 7.9965,-8.12975 20.9241,-8.26302 29.0538,-0.26655 8.1298,7.86319 8.263,20.92408 0.2666,29.05382 z m 87.5613,-97.69016 c -32.519,33.18534 -85.6955,33.71843 -118.7475,1.19947 -33.1854,-32.51896 -33.7185,-85.56219 -1.1995,-118.74753 32.519,-33.18533 85.5622,-33.71843 118.7475,-1.19947 33.0521,32.38569 33.7184,85.56219 1.1995,118.74753 z m -255.3538,-421.68032 -61.173,31.58606 m -135.1403,82.76339 61.8393,-36.25065 m -56.6416,97.95671 136.6063,81.83055 m -3.5984,21.05734 -60.24,-4.39804 m 80.631,-33.71841 -42.6478,-53.70967 m 167.3928,-38.51627 -82.2305,95.42445 m 149.5341,-3.06527 -70.7689,72.23468 m -49.3116,-304.26546 51.0442,50.77752 m -47.3124,67.43683 36.2506,-7.46333 m -128.6098,-64.10497 129.5428,25.85519 m -124.8781,-176.98843 -13.061,41.8482 m -95.8243,477.65557 c -23.1898,23.72285 -61.173,24.12267 -84.8958,0.93292 -23.7229,-23.18976 -24.1227,-61.17297 -0.933,-84.76255 23.1898,-23.72285 61.173,-24.12267 84.7626,-0.93292 23.8561,23.05648 24.2559,61.0397 1.0662,84.76255 z m -46.113,-233.89665 c -23.1897,23.72285 -61.1729,24.12268 -84.7625,0.93292 -23.7229,-23.18975 -24.1227,-61.17296 -0.9329,-84.76254 23.1897,-23.72285 61.1729,-24.12267 84.7625,-0.93292 23.7228,23.05648 24.1227,61.03969 0.9329,84.76254 z m 126.3442,-4.93115 c -7.3301,7.46337 -19.1915,7.59664 -26.6549,0.26655 -7.4634,-7.3301 -7.5966,-19.19152 -0.2665,-26.65489 7.33,-7.46337 19.3247,-7.59664 26.6548,-0.26655 7.4634,7.19682 7.5967,19.19152 0.2666,26.65489 z m -48.3786,120.48009 c -15.1933,15.59311 -40.1156,15.85966 -55.7087,0.5331 -15.5932,-15.19329 -15.8597,-40.24888 -0.6664,-55.70872 15.1933,-15.5931 40.1156,-15.85965 55.7087,-0.66637 15.7264,15.32656 15.8597,40.24888 0.6664,55.84199 z m 210.7069,36.38392 c -7.8632,7.99647 -20.6576,8.12975 -28.654,0.26655 -7.9965,-7.86319 -8.1298,-20.65753 -0.2666,-28.654 7.8632,-7.99647 20.6575,-8.12974 28.654,-0.26655 7.9965,7.72992 8.1297,20.65754 0.2666,28.654 z m -73.0344,-35.58427 c -15.4599,15.85966 -41.0486,16.12621 -57.0415,0.5331 -15.8597,-15.59311 -16.1262,-41.04853 -0.5331,-56.90819 15.5931,-15.85966 41.0485,-16.12621 57.0415,-0.66637 15.7263,15.59311 15.9929,41.04853 0.5331,57.04146 z m -77.699,-221.23557 c -16.7926,17.1924 -44.2471,17.45895 -61.3063,0.66637 -17.1924,-16.79258 -17.4589,-44.24712 -0.6664,-61.43952 16.7926,-17.1924 44.2472,-17.45895 61.4396,-0.66637 16.9258,16.79258 17.1924,44.24711 0.5331,61.43952 z m 94.6248,88.6275 c -17.4589,17.85878 -45.9797,18.12533 -63.8384,0.66637 -17.8588,-17.45895 -18.1254,-45.97968 -0.6664,-63.83845 17.4589,-17.85878 45.9797,-18.12533 63.8384,-0.66638 17.8588,17.45896 18.1254,46.11296 0.6664,63.83846 z m 182.7193,70.76873 c -15.1933,15.59311 -40.2489,15.85966 -55.7087,0.5331 -15.5932,-15.19329 -15.8597,-40.11561 -0.6664,-55.70872 15.3265,-15.59311 40.2489,-15.85966 55.842,-0.66637 15.4598,15.32656 15.7264,40.24888 0.5331,55.84199 z m -8.3963,-89.29388 c -29.3204,29.85348 -77.2992,30.38658 -107.1527,1.0662 -29.8534,-29.32038 -30.3865,-77.29918 -1.0662,-107.15265 29.3204,-29.85348 77.2992,-30.38658 107.1527,-1.19947 29.8535,29.45365 30.3866,77.43245 1.0662,107.28592 z M 1368.8799,224.30448 c -7.1968,7.46337 -19.1915,7.59664 -26.6549,0.26655 -7.4634,-7.3301 -7.5967,-19.19152 -0.2666,-26.65489 7.1969,-7.46337 19.1916,-7.59665 26.6549,-0.26655 7.3301,7.19682 7.4634,19.19152 0.2666,26.65489 z m -88.4943,-31.45277 c -7.9964,8.12974 -20.924,8.26301 -29.0538,0.26655 -8.1297,-7.99647 -8.263,-20.92409 -0.2665,-29.05383 7.9964,-8.12974 20.9241,-8.26302 29.0538,-0.26655 7.9965,7.86319 8.263,20.92409 0.2665,29.05383 z m 87.5614,-97.690172 c -32.3857,33.185342 -85.6955,33.718442 -118.7476,1.19947 -33.1853,-32.51896 -33.7184,-85.56218 -1.1994,-118.74752 32.5189,-33.18533 85.5621,-33.71843 118.7475,-1.19947 33.052,32.3856901 33.5851,85.56219 1.1995,118.74752 z m 94.4916,-606.132138 -134.474,-48.64514 m 134.474,89.16065 -112.0839,53.97613 m -93.5587,12.26117 109.8182,-86.49505 m -92.2259,154.46502 63.8385,60.63986 m 351.0448,357.442028 161.1288,-20.65754 m 34.1183,-203.643338 26.2551,70.368888 m -9.5958,-184.451778 2.399,49.71137 m 93.8252,143.403258 61.9726,-135.939888 m 77.4324,-49.045 c 0,29.98675 -24.256,54.24269 -54.2427,54.24269 -29.9868,0 -54.2427,-24.25594 -54.2427,-54.24269 0,-29.98675 24.2559,-54.2427 54.2427,-54.2427 29.9867,-0.13327 54.2427,24.25595 54.2427,54.2427 z M 1689.4049,79.301888 c 0,7.72991 -6.2639,13.99381 -13.9938,13.99381 -7.7299,0 -13.9938,-6.2639 -13.9938,-13.99381 0,-7.72992 6.2639,-13.99382 13.9938,-13.99382 7.7299,0 13.9938,6.2639 13.9938,13.99382 z m 153.932,-55.70872 c 0,-56.10854 45.4466,-101.55512 101.5551,-101.55512 56.1086,0 101.5551,45.44658 101.5551,101.55512 0,56.10854 -45.4465,101.555122 -101.5551,101.555122 -56.1085,0.13328 -101.5551,-45.313302 -101.5551,-101.555122 z M 1353.0202,-406.35017 c 0,11.59488 -9.3292,21.05736 -20.9241,21.05736 -11.5948,0 -20.9241,-9.46248 -20.9241,-21.05736 0,-11.59488 9.4625,-20.92409 20.9241,-20.92409 11.5949,0 20.9241,9.32921 20.9241,20.92409 z m -73.1677,43.31419 c 0,26.65489 -21.7237,48.24535 -48.3786,48.24535 -26.6549,0 -48.2453,-21.59046 -48.2453,-48.24535 0,-26.65489 21.5904,-48.24534 48.2453,-48.24534 26.7882,0 48.3786,21.59045 48.3786,48.24534 z m 48.1121,-204.04316 c 0,9.32921 -7.5966,16.92585 -16.9258,16.92585 -9.3292,0 -16.9259,-7.59664 -16.9259,-16.92585 0,-9.32922 7.5967,-16.92586 16.9259,-16.92586 9.3292,0 16.9258,7.59664 16.9258,16.92586 z m 55.3089,70.902 c 0,5.46425 -4.398,9.86231 -9.8623,9.86231 -5.4642,0 -9.8623,-4.39806 -9.8623,-9.86231 0,-5.46425 4.3981,-9.86231 9.8623,-9.86231 5.331,0 9.8623,4.39806 9.8623,9.86231 z m 530.2991,206.84192 78.0988,-34.78461 m -112.7502,-12.39447 11.0617,-63.30536 m -71.1684,90.62659 -70.5022,-54.64252 m -23.7229,84.89578 c 0,4.93116 -3.9983,9.06267 -8.9294,9.06267 -4.9312,0 -9.0627,-3.99824 -9.0627,-9.06267 0,-4.93115 3.9982,-9.06266 9.0627,-9.06266 4.9311,0.13328 8.9294,4.13151 8.9294,9.06266 z m -156.331,300.533868 c 24.1227,22.78993 25.1889,60.63987 2.5322,84.762542 -22.7899,24.12267 -60.6398,25.18887 -84.7625,2.53221 -24.1227,-22.789932 -25.1889,-60.773142 -2.5322,-84.762542 22.6566,-24.12266991 60.6399,-25.1888699 84.7625,-2.53221 z m 399.69,-424.479078 19.9912,39.04943 m 27.8544,19.19148 c 0,11.32833 -9.1959,20.52427 -20.6575,20.52427 -11.3283,0 -20.5243,-9.19594 -20.5243,-20.52427 0,-11.32832 9.196,-20.52426 20.5243,-20.52426 11.4616,0 20.6575,9.19594 20.6575,20.52426 z m -5.8641,-131.00877 c 0,46.37951 -37.7166,83.9629 -83.9629,83.9629 -46.3795,0 -83.9629,-37.58339 -83.9629,-83.9629 0,-46.3795 37.5834,-83.9629 83.9629,-83.9629 46.3796,0 83.9629,37.5834 83.9629,83.9629 z m -477.389,-122.74576 -21.7238,65.43775 m -38.5162,153.6654 18.7917,-69.16937 m 28.1209,109.68488 154.7316,-37.1836 m 12.1279,17.72547 -45.9797,38.91613 m 33.8518,-80.49768 -67.8368,-8.66284 m 92.4925,-144.46954 7.9965,125.67779 m 104.8871,-106.8861 0,101.15533 m -248.2904,-182.85254 72.1015,0.53308 m 13.3274,81.16413 20.6575,-30.65314 m -136.7395,44.24713 110.4846,-72.23474 m -212.8395,-39.04944 19.9913,39.04944 m 155.9311,181.51978 c 0,10.3954 -8.3963,18.92497 -18.925,18.92497 -10.3954,0 -18.7917,-8.52957 -18.7917,-18.92497 0,-10.39541 8.3963,-18.7917 18.7917,-18.7917 10.3954,-0.13327 18.925,8.39629 18.925,18.7917 z m 225.6336,-1.46602 c 0,11.19505 -9.0626,20.25771 -20.2577,20.25771 -11.1951,0 -20.2577,-9.06266 -20.2577,-20.25771 0,-11.19506 9.0626,-20.25772 20.2577,-20.25772 11.0618,0 20.2577,9.06266 20.2577,20.25772 z m -77.1659,25.72196 c 0,22.25683 -17.992,40.24888 -40.2489,40.24888 -22.2568,0 -40.2489,-17.99205 -40.2489,-40.24888 0,-22.25683 17.9921,-40.24888 40.2489,-40.24888 22.2569,0 40.2489,17.99205 40.2489,40.24888 z M 1544.269,-490.71289 c 0,23.9894 -19.458,43.44747 -43.3142,43.44747 -23.9894,0 -43.4474,-19.45807 -43.4474,-43.44747 0,-23.9894 19.458,-43.44747 43.4474,-43.44747 23.8562,0 43.3142,19.45807 43.3142,43.44747 z m 129.6761,-2.93204 c 0,24.92232 -20.1245,45.18004 -45.0468,45.18004 -24.9223,0 -45.18,-20.25772 -45.18,-45.18004 0,-24.92232 20.2577,-45.18003 45.18,-45.18003 24.9223,0.13327 45.0468,20.25771 45.0468,45.18003 z m 180.0537,-77.29917 c 0,21.72373 -17.5922,39.44923 -39.4492,39.44923 -21.7237,0 -39.4492,-17.59222 -39.4492,-39.44923 0,-21.72374 17.5922,-39.44924 39.4492,-39.44924 21.857,0 39.4492,17.7255 39.4492,39.44924 z m -68.3698,-57.84111 c 0,41.84817 -33.9849,75.83316 -75.8331,75.83316 -41.8482,0 -75.8332,-33.98499 -75.8332,-75.83316 0,-41.84817 33.985,-75.83316 75.8332,-75.83316 41.8482,0 75.8331,33.98499 75.8331,75.83316 z m -222.435,15.72638 c 0,10.39541 -8.3963,18.92497 -18.925,18.92497 -10.3954,0 -18.7917,-8.39629 -18.7917,-18.92497 0,-10.3954 8.3963,-18.79169 18.7917,-18.79169 10.5287,0 18.925,8.52956 18.925,18.79169 z m -85.1624,39.44924 c 0,11.32833 -9.1959,20.52426 -20.6575,20.52426 -11.3283,0 -20.5243,-9.19593 -20.5243,-20.52426 0,-11.32833 9.196,-20.52427 20.5243,-20.52427 11.4616,0 20.6575,9.19594 20.6575,20.52427 z m -5.7308,-131.00878 c 0,46.37951 -37.7166,83.9629 -83.9629,83.9629 -46.3795,0 -83.9629,-37.58339 -83.9629,-83.9629 0,-46.3795 37.5834,-83.96289 83.9629,-83.96289 46.2463,0 83.9629,37.58339 83.9629,83.96289 z m -240.6935,389.96101 -11.8615,85.962 m 474.8568,201.244388 62.2392,21.1906701 m 46.9126,-150.2003181 65.1712,112.616898 m -32.2524,-137.006098 c 0,-21.19064 17.1924,-38.51631 38.5163,-38.51631 21.1906,0 38.383,17.19239 38.383,38.51631 0,21.19064 -17.1924,38.38304 -38.383,38.38304 -21.3239,0 -38.5163,-17.1924 -38.5163,-38.38304 z m -10.662,189.7828081 c 0,19.9911599 -16.2595,36.2506399 -36.2506,36.2506399 -20.1245,0 -36.2507,-16.25948 -36.2507,-36.2506399 0,-20.1244501 16.2595,-36.2506501 36.2507,-36.2506501 19.9911,-0.13328 36.2506,16.1262 36.2506,36.2506501 z M 1363.5489,-263.21342 c 0,8.66284 -7.0635,15.72638 -15.7264,15.72638 -8.6628,0 -15.7264,-7.06354 -15.7264,-15.72638 0,-8.66284 7.0636,-15.72639 15.7264,-15.72639 8.6629,0 15.7264,7.06355 15.7264,15.72639 z m 479.7879,18.79168 -36.6504,59.97348 m -79.698,76.49958 -28.3876,-34.51813 m 82.2305,-28.92056 -65.1713,0 m -5.8641,-98.48978 -15.0601,40.1156 m 218.8367,-59.57366 c 0,27.32126 -22.1235,49.44481 -49.4448,49.44481 -27.3213,0 -49.4448,-22.12355 -49.4448,-49.44481 0,-27.32126 22.1235,-49.44482 49.4448,-49.44482 27.3213,0 49.4448,22.12356 49.4448,49.44482 z m -174.0564,194.047575 c 0,6.930273 -5.5975,12.661083 -12.5278,12.661083 -6.9303,0 -12.6611,-5.59753 -12.6611,-12.661083 0,-6.930265 5.7308,-12.661065 12.6611,-12.661065 6.9303,0 12.5278,5.7308 12.5278,12.661065 z m 73.9673,-76.099695 c 0,8.92938 -7.3301,16.25948 -16.2595,16.25948 -9.0626,0 -16.2595,-7.3301 -16.2595,-16.25948 0,-8.92939 7.3301,-16.25949 16.2595,-16.25949 8.9294,0 16.2595,7.3301 16.2595,16.25949 z m -439.1392,-8.12974 32.7855,60.63986 m 85.2956,133.541008 -37.4501,-61.173 m 99.0229,54.7758501 79.4315,-138.0723881 m 20.9242,3.33188 -3.1986,60.240058 m -39.8491,-76.233008 -48.2453,39.84909 m -180.3204,-111.15091 49.8447,-52.11026 m 62.3725,36.11734 -7.9965,-36.11734 m -55.9752,139.80484 23.4562,-130.07584 m -174.5895,128.07672 42.1147,12.26127 m 238.961,11.19506 c 7.5967,7.196815 7.9965,19.058248 0.7997,26.654888 -7.0636,7.59664 -19.0583,7.99647 -26.6549,0.79965 -7.5966,-7.19682 -7.8632,-19.058253 -0.7996,-26.654888 7.1968,-7.59664 19.0582,-7.99647 26.6548,-0.79965 z m 121.4131,46.112958 c 15.8596,14.92674 16.526,39.84906 1.5992,55.7087101 -14.9267,15.8596599 -39.849,16.5260399 -55.7087,1.5993 -15.8596,-14.9267401 -16.526,-39.8490601 -1.5993,-55.7087201 14.9268,-15.72638 39.8491,-16.52603 55.7088,-1.59929 z M 1460.8392,-114.2126 c 17.459,16.392755 18.2586,43.980568 1.7326,61.439518 -16.526,17.45895 -43.9806,18.2586 -61.3062,1.73257 -17.459,-16.52603 -18.2586,-43.980573 -1.8659,-61.439518 16.5261,-17.45895 43.9806,-18.2586 61.4395,-1.73257 z m 81.0309,-106.21973 c 18.1253,17.05912 18.925,45.71314 1.8658,63.83846 -17.0591,18.12532 -45.7131,18.92497 -63.8384,1.86584 -18.1253,-17.05913 -18.925,-45.71314 -1.8659,-63.83845 17.1924,-18.12533 45.7132,-18.92498 63.8385,-1.86585 z m -156.9973,8.52957 c 7.5966,7.19681 7.9965,19.05823 0.7997,26.65488 -7.1969,7.59665 -19.0583,7.8632 -26.6549,0.79965 -7.5967,-7.19683 -7.9965,-19.05825 -0.7997,-26.65489 7.0636,-7.59664 19.0583,-7.86319 26.6549,-0.79964 z m -29.7202,89.02732 c 8.263,7.8632 8.6628,20.79082 0.7997,29.053828 -7.8632,8.26302 -20.7909,8.66284 -29.0539,0.79965 -8.263,-7.729918 -8.6628,-20.790808 -0.7996,-29.053828 7.7299,-8.26301 20.6575,-8.66284 29.0538,-0.79965 z m -99.2895,-85.69546 c 33.7185,31.85259 35.3178,85.02909 3.4652,118.747528 -31.8526,33.71843 -85.0291,35.31772 -118.7475,3.46513 -33.7185,-31.852588 -35.3178,-85.029088 -3.4652,-118.747528 31.7193,-33.71843 84.8958,-35.31772 118.7475,-3.46513 z m 459.7969,24.12267 c 0,33.05206 -26.9215,59.9735 -59.9735,59.9735 -33.0521,0 -59.9735,-26.92144 -59.9735,-59.9735 0,-33.05206 26.9214,-59.9735 59.9735,-59.9735 33.1853,0 59.9735,26.92144 59.9735,59.9735 z m -196.4466,-134.87373 c 0,33.18533 -26.7881,59.9735 -59.9735,59.9735 -33.052,0 -59.9735,-26.78817 -59.9735,-59.9735 0,-33.05206 26.9215,-59.9735 59.9735,-59.9735 33.1854,0 59.9735,26.78816 59.9735,59.9735 z m 136.6063,27.98763 c 0,21.72373 -17.5922,39.44924 -39.4492,39.44924 -21.857,0 -39.4492,-17.59223 -39.4492,-39.44924 0,-21.72373 17.5922,-39.44923 39.4492,-39.44923 21.7237,0 39.4492,17.7255 39.4492,39.44923 z M 510.99233,-566.94588 376.38513,-615.72432 m 134.6072,89.16058 -112.0839,54.1095 m -93.5586,12.12793 109.6848,-86.49512 m -92.2259,154.59833 63.8385,60.63989 m -106.6195,-39.18267 -11.8615,85.96203 m 474.8568,201.377628 62.2392,21.05742 m -67.5701,88.09436 161.262,-20.6575399 m -46.7793,-217.6371581 65.3045,112.750155 m 15.4598,-98.756325 26.38841,70.36887 m -9.72911,-184.45181 2.39901,49.84464 m 93.82516,143.40329 62.1059,-136.07319 m 77.2992,-49.04499 c 0,29.98675 -24.256,54.2427 -54.2427,54.2427 -29.9868,0 -54.2427,-24.25595 -54.2427,-54.2427 0,-29.98675 24.2559,-54.2427 54.2427,-54.2427 29.9867,-0.13327 54.2427,24.25595 54.2427,54.2427 z m -300.00077,67.57014 c 0,-21.19063 17.1924,-38.38304 38.383,-38.38304 21.1907,0 38.51631,17.19241 38.51631,38.38304 0,21.19064 -17.19241,38.38303 -38.51631,38.38303 -21.1906,0 -38.383,-17.19239 -38.383,-38.38303 z m -10.7952,189.782808 c 0,19.99116 -16.2595,36.25064 -36.2507,36.25064 -19.9911,0 -36.2506,-16.25948 -36.2506,-36.25064 0,-20.12444 16.2595,-36.25065 36.2506,-36.25065 19.9912,0 36.2507,16.12621 36.2507,36.25065 z m -136.4731,70.3689 c 0,7.72992 -6.2639,13.99382 -13.9938,13.99382 -7.7299,0 -13.9938,-6.2639 -13.9938,-13.99382 0,-7.72992 6.2639,-13.9938199 13.9938,-13.9938199 7.7299,0 13.9938,6.2638999 13.9938,13.9938199 z m 153.7987,-55.57544 c 0,-56.10854 45.4466,-101.555118 101.68841,-101.555118 56.10856,0 101.55516,45.446578 101.55516,101.555118 0,56.10854 -45.4466,101.55512 -101.55516,101.55512 -56.24181,0 -101.68841,-45.44658 -101.68841,-101.55512 z M 411.96943,-319.18869 c 0,8.66284 -7.0636,15.72639 -15.7264,15.72639 -8.6629,0 -15.8597,-7.06355 -15.8597,-15.72639 0,-8.66284 7.0636,-15.72638 15.8597,-15.72638 8.6628,-0.13328 15.7264,6.93027 15.7264,15.72638 z m -10.3955,-143.13674 c 0,11.59487 -9.4624,21.05736 -21.0573,21.05736 -11.5949,0 -21.0574,-9.32921 -21.0574,-21.05736 0,-11.59488 9.4625,-21.05737 21.0574,-21.05737 11.5949,0 21.0573,9.32921 21.0573,21.05737 z m -73.3009,43.18091 c 0,26.65489 -21.5904,48.24535 -48.3786,48.24535 -26.6549,0 -48.2454,-21.59046 -48.2454,-48.24535 0,-26.65488 21.5905,-48.37862 48.2454,-48.37862 26.7882,0.13328 48.3786,21.72374 48.3786,48.37862 z m 48.1121,-204.04316 c 0,9.32921 -7.5967,16.92585 -16.9259,16.92585 -9.3292,0 -16.9258,-7.59664 -16.9258,-16.92585 0,-9.32921 7.5966,-16.92586 16.9258,-16.92586 9.4625,0 16.9259,7.59665 16.9259,16.92586 z m 55.3089,70.902 c 0,5.46425 -4.3981,9.86231 -9.8623,9.86231 -5.4643,0 -9.8623,-4.39806 -9.8623,-9.86231 0,-5.46425 4.398,-9.86231 9.8623,-9.86231 5.4642,0 9.8623,4.53133 9.8623,9.86231 z m 530.43221,206.84194 77.96556,-34.78467 m -112.61697,-12.39447 10.9286,-63.30536 m -71.1686,90.62659 -70.5022,-54.64252 m 95.0247,119.41394 -36.5172,59.97348 m -79.8313,76.49945 -28.3876,-34.51801 m 82.2304,-28.92059 -65.0379,0 m -5.8641,-98.4898 -15.1932,40.11566 m 218.96981,-59.57371 c 0,27.32126 -22.12351,49.44482 -49.57801,49.44482 -27.3213,0 -49.4449,-22.12356 -49.4449,-49.44482 0,-27.32126 22.1236,-49.44482 49.4449,-49.44482 27.3212,0 49.57801,22.12356 49.57801,49.44482 z m -174.05641,194.04758 c 0,6.93027 -5.5975,12.66108 -12.661,12.66108 -6.9303,0 -12.6611,-5.73081 -12.6611,-12.66108 0,-6.93027 5.7308,-12.66107 12.6611,-12.66107 6.9302,0 12.661,5.7308 12.661,12.66107 z m 73.8341,-76.0997 c 0,9.06266 -7.3301,16.25948 -16.2595,16.25948 -9.0627,0 -16.2595,-7.33009 -16.2595,-16.25948 0,-9.06266 7.3301,-16.25948 16.2595,-16.25948 8.9294,0.13327 16.2595,7.33009 16.2595,16.25948 z m -88.8941,-107.55248 c 0,4.93116 -3.9982,9.06267 -9.0626,9.06267 -4.9312,0 -8.9294,-3.99824 -8.9294,-9.06267 0,-4.93115 3.9982,-9.06266 8.9294,-9.06266 5.0644,0.13328 9.0626,4.13151 9.0626,9.06266 z m -350.2452,99.42272 32.9187,60.63987 m 85.1624,133.540968 -37.3168,-61.172928 m 99.023,54.775768 79.2982,-138.072288 m 21.0573,3.33186 -3.3317,60.24005 m -39.7159,-76.23298 -48.3786,39.84901 m -180.187,-111.15085 49.8446,-52.11029 m 62.2391,36.1174 -7.9965,-36.1174 m -55.8419,139.80487 23.323,-130.07587 m -174.5895,128.07675 42.1147,12.3945 m 246.2912,137.405978 c 24.1227,22.78993 25.1889,60.63987 2.5322,84.76255 -22.7899,24.12267 -60.6399,25.18887 -84.7625,2.39894 -24.1227,-22.65666 -25.1889,-60.6398699 -2.399,-84.76255 22.5234,-24.12267 60.5066,-25.18887 84.6293,-2.39894 z m -7.3301,-126.344168 c 7.5966,7.19682 7.8632,19.05825 0.7997,26.65489 -7.0636,7.59664 -19.0583,7.86319 -26.6549,0.79965 -7.5967,-7.19682 -7.9965,-19.05825 -0.7997,-26.65489 7.1968,-7.59664 19.1915,-7.99647 26.6549,-0.79965 z m 121.413,46.11296 c 15.8597,14.926735 16.526,39.849058 1.5993,55.708718 -14.9267,15.85965 -39.849,16.52603 -55.7087,1.59929 -15.8597,-14.92674 -16.526,-39.849063 -1.5993,-55.708718 14.9267,-15.72638 39.8491,-16.52603 55.7087,-1.59929 z m -221.5021,-55.70872 c 17.4589,16.52603 18.2586,43.98057 1.7326,61.30625 -16.5261,17.458948 -43.9806,18.258588 -61.3063,1.86584 -17.4589,-16.52603 -18.2586,-43.98057 -1.7325,-61.43952 16.3927,-17.45896 43.8472,-18.12533 61.3062,-1.73257 z m 81.0309,-106.21973 c 18.1253,17.05913 18.9249,45.71314 1.8658,63.83846 -17.0591,18.12531 -45.7131,18.92496 -63.8385,1.86584 -18.1253,-17.05913 -18.9249,-45.71313 -1.8658,-63.83845 17.1924,-18.12533 45.7131,-18.92497 63.8385,-1.86585 z m -156.9973,8.52957 c 7.5966,7.19682 7.9964,19.05824 0.7996,26.65489 -7.1968,7.59664 -19.0582,7.86319 -26.6549,0.79964 -7.5966,-7.19682 -7.9964,-19.05824 -0.7996,-26.65489 7.1968,-7.59664 19.0582,-7.86319 26.6549,-0.79964 z m -29.7202,89.02732 c 8.263,7.8632 8.6628,20.79082 0.7996,29.05383 -7.7299,8.26302 -20.7908,8.66284 -29.0538,0.79965 -8.263,-7.72992 -8.6629,-20.79081 -0.7997,-29.05383 7.73,-8.26302 20.7908,-8.52957 29.0539,-0.79965 z m -99.2895,-85.69546 c 33.7184,31.85259 35.3177,85.02909 3.4651,118.74752 -31.8525,33.71844 -84.8958,35.31773 -118.7475,3.46514 -33.7184,-31.85259 -35.3177,-85.02909 -3.4651,-118.74753 31.8526,-33.71843 85.0291,-35.31772 118.7475,-3.46513 z m 712.21857,-194.31411 19.8579,39.04938 m 27.9877,19.19153 c 0,11.32832 -9.196,20.52426 -20.6576,20.52426 -11.3283,0 -20.6575,-9.19594 -20.6575,-20.52426 0,-11.32833 9.1959,-20.52427 20.6575,-20.52427 11.3284,0 20.6576,9.19594 20.6576,20.52427 z m -5.8641,-131.00878 c 0,46.37951 -37.5834,83.9629 -83.96286,83.9629 -46.37951,0 -83.96291,-37.58339 -83.96291,-83.9629 0,-46.3795 37.5834,-83.96289 83.96291,-83.96289 46.24616,0 83.96286,37.58339 83.96286,83.96289 z m -477.52237,-122.74574 -21.5905,65.43769 m -38.6495,153.66552 18.7917,-69.16949 m 28.1209,109.68488 154.865,-37.0503 m 12.1279,17.59223 -46.1129,38.91613 m 33.985,-80.49774 -67.97,-8.66284 m 92.4923,-144.46954 8.1299,125.67785 m 104.7537,-106.88611 0,101.15534 m -248.2903,-182.85254 72.1014,0.53302 m 13.3274,81.16418 20.7909,-30.65313 m -136.8729,44.38037 110.6178,-72.36798 m -212.8393,-39.04938 19.858,39.04938 m 265.6159,408.35285 c 0,33.05206 -26.7882,59.9735 -59.9735,59.9735 -33.0521,0 -59.9735,-26.92144 -59.9735,-59.9735 0,-33.18533 26.7882,-59.9735 59.9735,-59.9735 33.1853,0 59.9735,26.92144 59.9735,59.9735 z M 567.63393,-375.4305 c 0,33.05206 -26.9214,59.9735 -59.9735,59.9735 -33.0521,0 -59.9735,-26.92144 -59.9735,-59.9735 0,-33.18534 26.7882,-59.9735 59.9735,-59.9735 33.1853,0 59.9735,26.78816 59.9735,59.9735 z m 86.8949,-91.95936 c 0,10.3954 -8.3963,18.92497 -18.7917,18.92497 -10.3954,0 -18.9249,-8.52957 -18.9249,-18.92497 0,-10.39541 8.3963,-18.7917 18.9249,-18.7917 10.3954,0 18.7917,8.39629 18.7917,18.7917 z m 49.7114,119.94699 c 0,21.85701 -17.5922,39.44924 -39.4492,39.44924 -21.7238,0 -39.4493,-17.59223 -39.4493,-39.44924 0,-21.72373 17.5923,-39.44923 39.4493,-39.44923 21.7237,0 39.4492,17.7255 39.4492,39.44923 z m 175.9223,-121.41301 c 0,11.19505 -9.0627,20.25771 -20.2577,20.25771 -11.1951,0 -20.2578,-9.06266 -20.2578,-20.25771 0,-11.19505 9.0627,-20.25772 20.2578,-20.25772 11.195,0 20.2577,9.06267 20.2577,20.25772 z m -77.1659,25.72196 c 0,22.25684 -17.9921,40.24888 -40.2489,40.24888 -22.2568,0 -40.2489,-17.99204 -40.2489,-40.24888 0,-22.25683 17.9921,-40.24888 40.2489,-40.24888 22.2568,0 40.2489,17.99205 40.2489,40.24888 z m -210.1738,-103.68751 c 0,23.9894 -19.4581,43.44747 -43.4475,43.44747 -23.9894,0 -43.4475,-19.45807 -43.4475,-43.44747 0,-23.9894 19.4581,-43.44747 43.4475,-43.44747 23.9894,0 43.4475,19.45807 43.4475,43.44747 z m 129.676,-2.79876 c 0,24.92232 -20.2577,45.18003 -45.18,45.18003 -24.9224,0 -45.1801,-20.25771 -45.1801,-45.18003 0,-24.92232 20.1245,-45.18004 45.1801,-45.18004 25.0556,0 45.18,20.25772 45.18,45.18004 z m 180.0538,-77.29918 c 0,21.72374 -17.5923,39.44924 -39.4493,39.44924 -21.857,0 -39.4492,-17.7255 -39.4492,-39.44924 0,-21.72373 17.5922,-39.44923 39.4492,-39.44923 21.7238,0 39.4493,17.59222 39.4493,39.44923 z m -68.5031,-57.97438 c 0,41.84817 -33.985,75.83316 -75.8331,75.83316 -41.8482,0 -75.8332,-33.98499 -75.8332,-75.83316 0,-41.84817 33.985,-75.83316 75.8332,-75.83316 41.8481,0 75.8331,33.98499 75.8331,75.83316 z m -222.435,15.85966 c 0,10.39541 -8.3963,18.7917 -18.7917,18.7917 -10.3954,0 -18.7917,-8.52957 -18.7917,-18.7917 0,-10.39541 8.3963,-18.92497 18.7917,-18.92497 10.3954,0 18.7917,8.52956 18.7917,18.92497 z m -85.0291,39.44923 c 0,11.32833 -9.196,20.52427 -20.6576,20.52427 -11.3283,0 -20.5242,-9.19594 -20.5242,-20.52427 0,-11.32832 9.1959,-20.52426 20.5242,-20.52426 11.4616,-0.13327 20.6576,9.06266 20.6576,20.52426 z m -5.8641,-131.14205 c 0,46.37951 -37.5834,83.9629 -83.9629,83.9629 -46.3795,0 -83.9629,-37.58339 -83.9629,-83.9629 0,-46.3795 37.5834,-83.9629 83.9629,-83.9629 46.3795,0 83.9629,37.5834 83.9629,83.9629 z"
       inkscape:connector-curvature="0" />
  </g>
</svg>
