<?xml version="1.0" encoding="UTF-8" standalone="no"?>
<!-- Created with Inkscape (http://www.inkscape.org/) -->

<svg
   xmlns:dc="http://purl.org/dc/elements/1.1/"
   xmlns:cc="http://creativecommons.org/ns#"
   xmlns:rdf="http://www.w3.org/1999/02/22-rdf-syntax-ns#"
   xmlns:svg="http://www.w3.org/2000/svg"
   xmlns="http://www.w3.org/2000/svg"
   xmlns:sodipodi="http://sodipodi.sourceforge.net/DTD/sodipodi-0.dtd"
   xmlns:inkscape="http://www.inkscape.org/namespaces/inkscape"
   width="2000"
   height="2000"
   viewBox="0 0 2000 2000"
   id="svg2"
   version="1.1"
   inkscape:version="0.91 r13725"
   sodipodi:docname="jeux_backgroung.svg">
  <defs
     id="defs4" />
  <sodipodi:namedview
     id="base"
     pagecolor="#ffffff"
     bordercolor="#666666"
     borderopacity="1.0"
     inkscape:pageopacity="0.0"
     inkscape:pageshadow="2"
     inkscape:zoom="0.175"
     inkscape:cx="1333.5714"
     inkscape:cy="985.71429"
     inkscape:document-units="px"
     inkscape:current-layer="layer1"
     showgrid="false"
     units="px"
     inkscape:window-width="1920"
     inkscape:window-height="1001"
     inkscape:window-x="-9"
     inkscape:window-y="-9"
     inkscape:window-maximized="1" />
  <metadata
     id="metadata7">
    <rdf:RDF>
      <cc:Work
         rdf:about="">
        <dc:format>image/svg+xml</dc:format>
        <dc:type
           rdf:resource="http://purl.org/dc/dcmitype/StillImage" />
        <dc:title></dc:title>
      </cc:Work>
    </rdf:RDF>
  </metadata>
  <g
     inkscape:label="Calque 1"
     inkscape:groupmode="layer"
     id="layer1"
     transform="translate(0,947.63784)">
    <path
       style="fill:#f9fdff;fill-opacity:1;fill-rule:evenodd;stroke:#e1f4ff;stroke-width:12.09112549px;stroke-linecap:round;stroke-linejoin:round;stroke-miterlimit:4;stroke-dasharray:none;stroke-opacity:1"
       d="m 1801.533,-809.03869 c -55.8066,0 -101.0311,45.38848 -101.0311,101.39376 0,56.01027 45.2245,101.39621 101.0311,101.39621 54.8473,0 100.0715,-45.38594 100.0715,-101.39621 0,-56.00528 -45.2242,-101.39376 -100.0715,-101.39376 z m -682.2159,136.15955 c -106.8083,0 -192.44646,86.9101 -192.44646,193.13148 0,107.18992 85.63816,193.13136 192.44646,193.13136 105.8441,0 192.4437,-85.94144 192.4437,-193.13136 0,-106.22138 -86.5996,-193.13148 -192.4437,-193.13148 z m 454.17,92.70224 c -55.8109,0 -100.074,45.38671 -100.074,100.42924 0,56.0103 44.2631,101.39624 100.074,101.39624 55.8073,0 101.0361,-45.38594 101.0361,-101.39624 0,-55.04253 -45.2288,-100.42924 -101.0361,-100.42924 z m 455.1322,0 c -55.8112,0 -101.0362,45.38671 -101.0362,100.42924 0,56.0103 45.225,101.39624 101.0362,101.39624 55.8115,0 101.0335,-45.38594 101.0335,-101.39624 0,-55.04253 -45.222,-100.42924 -101.0335,-100.42924 z m -227.0863,227.8973 c -55.8066,0 -101.0311,45.38813 -101.0311,101.39378 0,55.04344 45.2245,100.42912 101.0311,100.42912 54.8473,0 100.0715,-45.38568 100.0715,-100.42912 0,-56.00565 -45.2242,-101.39378 -100.0715,-101.39378 z"
       id="path4370-1-5"
       inkscape:connector-curvature="0" />
    <path
       id="path5108-2"
       d="m 312.00481,-110.52412 c -55.80644,0 -101.03105,45.388522 -101.03105,101.3937817 0,56.0103003 45.22461,101.3962343 101.03105,101.3962343 54.84743,0 100.07154,-45.385934 100.07154,-101.3962343 0,-56.0052597 -45.22411,-101.3937817 -100.07154,-101.3937817 z m -682.21598,136.1596 c -106.80819,0 -192.4463,86.9101 -192.4463,193.13149 0,107.18992 85.63811,193.13136 192.4463,193.13136 105.84424,0 192.44386,-85.94144 192.44386,-193.13136 0,-106.22139 -86.59962,-193.13149 -192.44386,-193.13149 z m 454.170128,92.70224 c -55.81095,0 -100.073984,45.38671 -100.073984,100.42925 0,56.01032 44.263034,101.39625 100.073984,101.39625 55.807352,0 101.036082,-45.38593 101.036082,-101.39625 0,-55.04254 -45.22873,-100.42925 -101.036082,-100.42925 z m 455.132192,0 c -55.81108,0 -101.03622,45.38671 -101.03622,100.42925 0,56.01032 45.22514,101.39625 101.03622,101.39625 55.81145,0 101.0335,-45.38593 101.0335,-101.39625 0,-55.04254 -45.22205,-100.42925 -101.0335,-100.42925 z M 312.00481,346.23503 c -55.80644,0 -101.03105,45.38812 -101.03105,101.39374 0,55.04344 45.22461,100.42912 101.03105,100.42912 54.84743,0 100.07154,-45.38568 100.07154,-100.42912 0,-56.00562 -45.22411,-101.39374 -100.07154,-101.39374 z"
       style="fill:#f9fdff;fill-opacity:1;fill-rule:evenodd;stroke:#e1f4ff;stroke-width:12.09112549px;stroke-linecap:round;stroke-linejoin:round;stroke-miterlimit:4;stroke-dasharray:none;stroke-opacity:1"
       inkscape:connector-curvature="0" />
    <path
       inkscape:connector-curvature="0"
       id="path4619"
       d="m 1200.2264,665.02796 c -35.3023,0 -63.9111,28.6775 -63.9111,64.06278 0,35.38864 28.6088,64.06433 63.9111,64.06433 34.6959,0 63.3041,-28.67569 63.3041,-64.06433 0,-35.38528 -28.6082,-64.06278 -63.3041,-64.06278 z m -431.56229,86.02873 c -67.56573,0 -121.73967,54.91179 -121.73967,122.02473 0,67.72506 54.17394,122.0246 121.73967,122.0246 66.9558,0 121.7379,-54.29954 121.7379,-122.0246 0,-67.11294 -54.7821,-122.02473 -121.7379,-122.02473 z m 287.30299,58.57136 c -35.3055,0 -63.30589,28.6762 -63.30589,63.45337 0,35.38865 28.00039,64.06433 63.30589,64.06433 35.3032,0 63.9142,-28.67568 63.9142,-64.06433 0,-34.77717 -28.611,-63.45337 -63.9142,-63.45337 z m 287.9116,0 c -35.3055,0 -63.9144,28.6762 -63.9144,63.45337 0,35.38865 28.6089,64.06433 63.9144,64.06433 35.3056,0 63.9128,-28.67568 63.9128,-64.06433 0,-34.77717 -28.6072,-63.45337 -63.9128,-63.45337 z m -143.6523,143.99068 c -35.3023,0 -63.9111,28.67694 -63.9111,64.06277 0,34.7775 28.6088,63.4533 63.9111,63.4533 34.6959,0 63.3041,-28.6758 63.3041,-63.4533 0,-35.38583 -28.6082,-64.06277 -63.3041,-64.06277 z"
       style="fill:#f9fdff;fill-opacity:1;fill-rule:evenodd;stroke:#e1f4ff;stroke-width:8.7764101px;stroke-linecap:round;stroke-linejoin:round;stroke-miterlimit:4;stroke-dasharray:none;stroke-opacity:1" />
    <path
       inkscape:connector-curvature="0"
       id="path4621"
       d="m 2654.3419,-61.306706 c -78.2651,0 -141.69,63.6546519 -141.69,142.198665 0,78.550991 63.4249,142.202041 141.69,142.202041 76.9203,0 140.3442,-63.65105 140.3442,-142.202041 0,-78.5440131 -63.4239,-142.198665 -140.3442,-142.198665 z M 1697.5751,129.64888 c -149.7921,0 -269.8944,121.88625 -269.8944,270.85527 0,150.32732 120.1023,270.85508 269.8944,270.85508 148.4401,0 269.8909,-120.52776 269.8909,-270.85508 0,-148.96902 -121.4508,-270.85527 -269.8909,-270.85527 z m 636.9462,130.00926 c -78.2714,0 -140.3477,63.65221 -140.3477,140.84601 0,78.55106 62.0763,142.20212 140.3477,142.20212 78.2664,0 141.6971,-63.65106 141.6971,-142.20212 0,-77.1938 -63.4307,-140.84601 -141.6971,-140.84601 z m 638.2956,0 c -78.2717,0 -141.6972,63.65221 -141.6972,140.84601 0,78.55106 63.4255,142.20212 141.6972,142.20212 78.2722,0 141.6933,-63.65106 141.6933,-142.20212 0,-77.1938 -63.4211,-140.84601 -141.6933,-140.84601 z m -318.475,319.61226 c -78.2651,0 -141.69,63.65414 -141.69,142.19868 0,77.19508 63.4249,140.84573 141.69,140.84573 76.9203,0 140.3442,-63.65065 140.3442,-140.84573 0,-78.54454 -63.4239,-142.19868 -140.3442,-142.19868 z"
       style="fill:#f9fdff;fill-opacity:1;fill-rule:evenodd;stroke:#e1f4ff;stroke-width:16.95707321px;stroke-linecap:round;stroke-linejoin:round;stroke-miterlimit:4;stroke-dasharray:none;stroke-opacity:1" />
  </g>
</svg>
